<svg xmlns="http://www.w3.org/2000/svg" xmlns:xlink="http://www.w3.org/1999/xlink">
<g id="crease-pattern">
<line x1="450.0" y1="550.0" x2="400.0" y2="550.0"   stroke="black" stroke-width="1" />
<line x1="400.0" y1="550.0" x2="435.36" y2="514.64"   stroke="red" stroke-width="1" />
<line x1="485.36" y1="514.64" x2="400.0" y2="550.0"   stroke="blue" stroke-width="1" />
<line x1="500.0" y1="550.0" x2="450.0" y2="550.0"   stroke="black" stroke-width="1" />
<line x1="450.0" y1="550.0" x2="485.36" y2="514.64"   stroke="red" stroke-width="1" />
<line x1="535.36" y1="514.64" x2="450.0" y2="550.0"   stroke="blue" stroke-width="1" />
<line x1="550.0" y1="550.0" x2="500.0" y2="550.0"   stroke="black" stroke-width="1" />
<line x1="500.0" y1="550.0" x2="535.36" y2="514.64"   stroke="red" stroke-width="1" />
<line x1="585.36" y1="514.64" x2="500.0" y2="550.0"   stroke="blue" stroke-width="1" />
<line x1="600.0" y1="550.0" x2="550.0" y2="550.0"   stroke="black" stroke-width="1" />
<line x1="550.0" y1="550.0" x2="585.36" y2="514.64"   stroke="red" stroke-width="1" />
<line x1="635.36" y1="514.64" x2="550.0" y2="550.0"   stroke="blue" stroke-width="1" />
<line x1="600.0" y1="550.0" x2="635.36" y2="514.64"   stroke="red" stroke-width="1" />
<line x1="650.0" y1="529.29" x2="650.0" y2="550.0"   stroke="black" stroke-width="1" />
<line x1="650.0" y1="529.29" x2="600.0" y2="550.0"   stroke="blue" stroke-width="1" />
<line x1="650.0" y1="514.64" x2="650.0" y2="529.29"   stroke="black" stroke-width="1" />
<line x1="485.36" y1="514.64" x2="435.36" y2="514.64"   stroke="red" stroke-width="1" />
<line x1="435.36" y1="514.64" x2="470.71" y2="479.29"   stroke="red" stroke-width="1" />
<line x1="520.71" y1="479.29" x2="435.36" y2="514.64"   stroke="blue" stroke-width="1" />
<line x1="535.36" y1="514.64" x2="485.36" y2="514.64"   stroke="red" stroke-width="1" />
<line x1="485.36" y1="514.64" x2="520.71" y2="479.29"   stroke="red" stroke-width="1" />
<line x1="570.71" y1="479.29" x2="485.36" y2="514.64"   stroke="blue" stroke-width="1" />
<line x1="585.36" y1="514.64" x2="535.36" y2="514.64"   stroke="red" stroke-width="1" />
<line x1="535.36" y1="514.64" x2="570.71" y2="479.29"   stroke="red" stroke-width="1" />
<line x1="620.71" y1="479.29" x2="535.36" y2="514.64"   stroke="blue" stroke-width="1" />
<line x1="635.36" y1="514.64" x2="585.36" y2="514.64"   stroke="red" stroke-width="1" />
<line x1="585.36" y1="514.64" x2="620.71" y2="479.29"   stroke="red" stroke-width="1" />
<line x1="635.36" y1="514.64" x2="650.0" y2="500.0"   stroke="red" stroke-width="1" />
<line x1="470.71" y1="479.29" x2="420.71" y2="479.29"   stroke="red" stroke-width="1" />
<line x1="420.71" y1="479.29" x2="456.07" y2="443.93"   stroke="red" stroke-width="1" />
<line x1="506.07" y1="443.93" x2="420.71" y2="479.29"   stroke="blue" stroke-width="1" />
<line x1="520.71" y1="479.29" x2="470.71" y2="479.29"   stroke="red" stroke-width="1" />
<line x1="470.71" y1="479.29" x2="506.07" y2="443.93"   stroke="red" stroke-width="1" />
<line x1="556.07" y1="443.93" x2="470.71" y2="479.29"   stroke="blue" stroke-width="1" />
<line x1="570.71" y1="479.29" x2="520.71" y2="479.29"   stroke="red" stroke-width="1" />
<line x1="520.71" y1="479.29" x2="556.07" y2="443.93"   stroke="red" stroke-width="1" />
<line x1="606.07" y1="443.93" x2="520.71" y2="479.29"   stroke="blue" stroke-width="1" />
<line x1="620.71" y1="479.29" x2="570.71" y2="479.29"   stroke="red" stroke-width="1" />
<line x1="570.71" y1="479.29" x2="606.07" y2="443.93"   stroke="red" stroke-width="1" />
<line x1="620.71" y1="479.29" x2="650.0" y2="450.0"   stroke="red" stroke-width="1" />
<line x1="650.0" y1="487.87" x2="650.0" y2="500.0"   stroke="black" stroke-width="1" />
<line x1="650.0" y1="514.64" x2="635.36" y2="514.64"   stroke="red" stroke-width="1" />
<line x1="650.0" y1="500.0" x2="650.0" y2="508.58"   stroke="black" stroke-width="1" />
<line x1="650.0" y1="508.58" x2="635.36" y2="514.64"   stroke="blue" stroke-width="1" />
<line x1="650.0" y1="508.58" x2="650.0" y2="514.64"   stroke="black" stroke-width="1" />
<line x1="650.0" y1="446.45" x2="570.71" y2="479.29"   stroke="blue" stroke-width="1" />
<line x1="650.0" y1="446.45" x2="650.0" y2="450.0"   stroke="black" stroke-width="1" />
<line x1="650.0" y1="443.93" x2="650.0" y2="446.45"   stroke="black" stroke-width="1" />
<line x1="650.0" y1="479.29" x2="650.0" y2="487.87"   stroke="black" stroke-width="1" />
<line x1="650.0" y1="450.0" x2="650.0" y2="467.16"   stroke="black" stroke-width="1" />
<line x1="650.0" y1="467.16" x2="620.71" y2="479.29"   stroke="blue" stroke-width="1" />
<line x1="650.0" y1="467.16" x2="650.0" y2="479.29"   stroke="black" stroke-width="1" />
<line x1="456.07" y1="443.93" x2="406.07" y2="443.93"   stroke="red" stroke-width="1" />
<line x1="406.07" y1="443.93" x2="441.42" y2="408.58"   stroke="red" stroke-width="1" />
<line x1="491.42" y1="408.58" x2="406.07" y2="443.93"   stroke="blue" stroke-width="1" />
<line x1="506.07" y1="443.93" x2="456.07" y2="443.93"   stroke="red" stroke-width="1" />
<line x1="456.07" y1="443.93" x2="491.42" y2="408.58"   stroke="red" stroke-width="1" />
<line x1="541.42" y1="408.58" x2="456.07" y2="443.93"   stroke="blue" stroke-width="1" />
<line x1="556.07" y1="443.93" x2="506.07" y2="443.93"   stroke="red" stroke-width="1" />
<line x1="506.07" y1="443.93" x2="541.42" y2="408.58"   stroke="red" stroke-width="1" />
<line x1="591.42" y1="408.58" x2="506.07" y2="443.93"   stroke="blue" stroke-width="1" />
<line x1="606.07" y1="443.93" x2="556.07" y2="443.93"   stroke="red" stroke-width="1" />
<line x1="556.07" y1="443.93" x2="591.42" y2="408.58"   stroke="red" stroke-width="1" />
<line x1="641.42" y1="408.58" x2="556.07" y2="443.93"   stroke="blue" stroke-width="1" />
<line x1="606.07" y1="443.93" x2="641.42" y2="408.58"   stroke="red" stroke-width="1" />
<line x1="441.42" y1="408.58" x2="391.42" y2="408.58"   stroke="red" stroke-width="1" />
<line x1="391.42" y1="408.58" x2="426.78" y2="373.22"   stroke="red" stroke-width="1" />
<line x1="476.78" y1="373.22" x2="391.42" y2="408.58"   stroke="blue" stroke-width="1" />
<line x1="491.42" y1="408.58" x2="441.42" y2="408.58"   stroke="red" stroke-width="1" />
<line x1="441.42" y1="408.58" x2="476.78" y2="373.22"   stroke="red" stroke-width="1" />
<line x1="526.78" y1="373.22" x2="441.42" y2="408.58"   stroke="blue" stroke-width="1" />
<line x1="541.42" y1="408.58" x2="491.42" y2="408.58"   stroke="red" stroke-width="1" />
<line x1="491.42" y1="408.58" x2="526.78" y2="373.22"   stroke="red" stroke-width="1" />
<line x1="576.78" y1="373.22" x2="491.42" y2="408.58"   stroke="blue" stroke-width="1" />
<line x1="591.42" y1="408.58" x2="541.42" y2="408.58"   stroke="red" stroke-width="1" />
<line x1="541.42" y1="408.58" x2="576.78" y2="373.22"   stroke="red" stroke-width="1" />
<line x1="626.78" y1="373.22" x2="541.42" y2="408.58"   stroke="blue" stroke-width="1" />
<line x1="641.42" y1="408.58" x2="591.42" y2="408.58"   stroke="red" stroke-width="1" />
<line x1="591.42" y1="408.58" x2="626.78" y2="373.22"   stroke="red" stroke-width="1" />
<line x1="641.42" y1="408.58" x2="650.0" y2="400.0"   stroke="red" stroke-width="1" />
<line x1="476.78" y1="373.22" x2="426.78" y2="373.22"   stroke="red" stroke-width="1" />
<line x1="426.78" y1="373.22" x2="462.13" y2="337.87"   stroke="red" stroke-width="1" />
<line x1="512.13" y1="337.87" x2="426.78" y2="373.22"   stroke="blue" stroke-width="1" />
<line x1="526.78" y1="373.22" x2="476.78" y2="373.22"   stroke="red" stroke-width="1" />
<line x1="476.78" y1="373.22" x2="512.13" y2="337.87"   stroke="red" stroke-width="1" />
<line x1="562.13" y1="337.87" x2="476.78" y2="373.22"   stroke="blue" stroke-width="1" />
<line x1="576.78" y1="373.22" x2="526.78" y2="373.22"   stroke="red" stroke-width="1" />
<line x1="526.78" y1="373.22" x2="562.13" y2="337.87"   stroke="red" stroke-width="1" />
<line x1="612.13" y1="337.87" x2="526.78" y2="373.22"   stroke="blue" stroke-width="1" />
<line x1="626.78" y1="373.22" x2="576.78" y2="373.22"   stroke="red" stroke-width="1" />
<line x1="576.78" y1="373.22" x2="612.13" y2="337.87"   stroke="red" stroke-width="1" />
<line x1="626.78" y1="373.22" x2="650.0" y2="350.0"   stroke="red" stroke-width="1" />
<line x1="650.0" y1="443.93" x2="606.07" y2="443.93"   stroke="red" stroke-width="1" />
<line x1="650.0" y1="425.74" x2="606.07" y2="443.93"   stroke="blue" stroke-width="1" />
<line x1="650.0" y1="425.74" x2="650.0" y2="443.93"   stroke="black" stroke-width="1" />
<line x1="650.0" y1="400.0" x2="650.0" y2="405.03"   stroke="black" stroke-width="1" />
<line x1="650.0" y1="350.0" x2="650.0" y2="363.6"   stroke="black" stroke-width="1" />
<line x1="650.0" y1="384.31" x2="650.0" y2="400.0"   stroke="black" stroke-width="1" />
<line x1="650.0" y1="408.58" x2="641.42" y2="408.58"   stroke="red" stroke-width="1" />
<line x1="650.0" y1="408.58" x2="650.0" y2="425.74"   stroke="black" stroke-width="1" />
<line x1="650.0" y1="405.03" x2="641.42" y2="408.58"   stroke="blue" stroke-width="1" />
<line x1="650.0" y1="405.03" x2="650.0" y2="408.58"   stroke="black" stroke-width="1" />
<line x1="650.0" y1="342.89" x2="576.78" y2="373.22"   stroke="blue" stroke-width="1" />
<line x1="650.0" y1="342.89" x2="650.0" y2="350.0"   stroke="black" stroke-width="1" />
<line x1="650.0" y1="337.87" x2="650.0" y2="342.89"   stroke="black" stroke-width="1" />
<line x1="650.0" y1="373.22" x2="650.0" y2="384.31"   stroke="black" stroke-width="1" />
<line x1="650.0" y1="363.6" x2="626.78" y2="373.22"   stroke="blue" stroke-width="1" />
<line x1="650.0" y1="363.6" x2="650.0" y2="373.22"   stroke="black" stroke-width="1" />
<line x1="462.13" y1="337.87" x2="412.13" y2="337.87"   stroke="red" stroke-width="1" />
<line x1="412.13" y1="337.87" x2="447.49" y2="302.51"   stroke="red" stroke-width="1" />
<line x1="497.49" y1="302.51" x2="412.13" y2="337.87"   stroke="blue" stroke-width="1" />
<line x1="512.13" y1="337.87" x2="462.13" y2="337.87"   stroke="red" stroke-width="1" />
<line x1="462.13" y1="337.87" x2="497.49" y2="302.51"   stroke="red" stroke-width="1" />
<line x1="547.49" y1="302.51" x2="462.13" y2="337.87"   stroke="blue" stroke-width="1" />
<line x1="562.13" y1="337.87" x2="512.13" y2="337.87"   stroke="red" stroke-width="1" />
<line x1="512.13" y1="337.87" x2="547.49" y2="302.51"   stroke="red" stroke-width="1" />
<line x1="597.49" y1="302.51" x2="512.13" y2="337.87"   stroke="blue" stroke-width="1" />
<line x1="612.13" y1="337.87" x2="562.13" y2="337.87"   stroke="red" stroke-width="1" />
<line x1="562.13" y1="337.87" x2="597.49" y2="302.51"   stroke="red" stroke-width="1" />
<line x1="647.49" y1="302.51" x2="562.13" y2="337.87"   stroke="blue" stroke-width="1" />
<line x1="612.13" y1="337.87" x2="647.49" y2="302.51"   stroke="red" stroke-width="1" />
<line x1="447.49" y1="302.51" x2="397.49" y2="302.51"   stroke="red" stroke-width="1" />
<line x1="397.49" y1="302.51" x2="432.84" y2="267.16"   stroke="red" stroke-width="1" />
<line x1="482.84" y1="267.16" x2="397.49" y2="302.51"   stroke="blue" stroke-width="1" />
<line x1="497.49" y1="302.51" x2="447.49" y2="302.51"   stroke="red" stroke-width="1" />
<line x1="447.49" y1="302.51" x2="482.84" y2="267.16"   stroke="red" stroke-width="1" />
<line x1="532.84" y1="267.16" x2="447.49" y2="302.51"   stroke="blue" stroke-width="1" />
<line x1="547.49" y1="302.51" x2="497.49" y2="302.51"   stroke="red" stroke-width="1" />
<line x1="497.49" y1="302.51" x2="532.84" y2="267.16"   stroke="red" stroke-width="1" />
<line x1="582.84" y1="267.16" x2="497.49" y2="302.51"   stroke="blue" stroke-width="1" />
<line x1="597.49" y1="302.51" x2="547.49" y2="302.51"   stroke="red" stroke-width="1" />
<line x1="547.49" y1="302.51" x2="582.84" y2="267.16"   stroke="red" stroke-width="1" />
<line x1="632.84" y1="267.16" x2="547.49" y2="302.51"   stroke="blue" stroke-width="1" />
<line x1="647.49" y1="302.51" x2="597.49" y2="302.51"   stroke="red" stroke-width="1" />
<line x1="597.49" y1="302.51" x2="632.84" y2="267.16"   stroke="red" stroke-width="1" />
<line x1="647.49" y1="302.51" x2="650.0" y2="300.0"   stroke="red" stroke-width="1" />
<line x1="650.0" y1="337.87" x2="612.13" y2="337.87"   stroke="red" stroke-width="1" />
<line x1="650.0" y1="322.18" x2="612.13" y2="337.87"   stroke="blue" stroke-width="1" />
<line x1="650.0" y1="322.18" x2="650.0" y2="337.87"   stroke="black" stroke-width="1" />
<line x1="650.0" y1="300.0" x2="650.0" y2="301.47"   stroke="black" stroke-width="1" />
<line x1="650.0" y1="280.76" x2="650.0" y2="300.0"   stroke="black" stroke-width="1" />
<line x1="650.0" y1="302.51" x2="647.49" y2="302.51"   stroke="red" stroke-width="1" />
<line x1="650.0" y1="302.51" x2="650.0" y2="322.18"   stroke="black" stroke-width="1" />
<line x1="650.0" y1="301.47" x2="647.49" y2="302.51"   stroke="blue" stroke-width="1" />
<line x1="650.0" y1="301.47" x2="650.0" y2="302.51"   stroke="black" stroke-width="1" />
<line x1="650.0" y1="267.16" x2="650.0" y2="280.76"   stroke="black" stroke-width="1" />
<line x1="350.0" y1="550.0" x2="300.0" y2="550.0"   stroke="black" stroke-width="1" />
<line x1="300.0" y1="550.0" x2="335.36" y2="514.64"   stroke="red" stroke-width="1" />
<line x1="385.36" y1="514.64" x2="300.0" y2="550.0"   stroke="blue" stroke-width="1" />
<line x1="350.0" y1="550.0" x2="385.36" y2="514.64"   stroke="red" stroke-width="1" />
<line x1="435.36" y1="514.64" x2="350.0" y2="550.0"   stroke="blue" stroke-width="1" />
<line x1="335.36" y1="514.64" x2="285.36" y2="514.64"   stroke="red" stroke-width="1" />
<line x1="285.36" y1="514.64" x2="320.71" y2="479.29"   stroke="red" stroke-width="1" />
<line x1="370.71" y1="479.29" x2="285.36" y2="514.64"   stroke="blue" stroke-width="1" />
<line x1="385.36" y1="514.64" x2="335.36" y2="514.64"   stroke="red" stroke-width="1" />
<line x1="335.36" y1="514.64" x2="370.71" y2="479.29"   stroke="red" stroke-width="1" />
<line x1="420.71" y1="479.29" x2="335.36" y2="514.64"   stroke="blue" stroke-width="1" />
<line x1="435.36" y1="514.64" x2="385.36" y2="514.64"   stroke="red" stroke-width="1" />
<line x1="385.36" y1="514.64" x2="420.71" y2="479.29"   stroke="red" stroke-width="1" />
<line x1="470.71" y1="479.29" x2="385.36" y2="514.64"   stroke="blue" stroke-width="1" />
<line x1="370.71" y1="479.29" x2="320.71" y2="479.29"   stroke="red" stroke-width="1" />
<line x1="320.71" y1="479.29" x2="356.07" y2="443.93"   stroke="red" stroke-width="1" />
<line x1="406.07" y1="443.93" x2="320.71" y2="479.29"   stroke="blue" stroke-width="1" />
<line x1="420.71" y1="479.29" x2="370.71" y2="479.29"   stroke="red" stroke-width="1" />
<line x1="370.71" y1="479.29" x2="406.07" y2="443.93"   stroke="red" stroke-width="1" />
<line x1="456.07" y1="443.93" x2="370.71" y2="479.29"   stroke="blue" stroke-width="1" />
<line x1="356.07" y1="443.93" x2="306.07" y2="443.93"   stroke="red" stroke-width="1" />
<line x1="306.07" y1="443.93" x2="341.42" y2="408.58"   stroke="red" stroke-width="1" />
<line x1="391.42" y1="408.58" x2="306.07" y2="443.93"   stroke="blue" stroke-width="1" />
<line x1="406.07" y1="443.93" x2="356.07" y2="443.93"   stroke="red" stroke-width="1" />
<line x1="356.07" y1="443.93" x2="391.42" y2="408.58"   stroke="red" stroke-width="1" />
<line x1="441.42" y1="408.58" x2="356.07" y2="443.93"   stroke="blue" stroke-width="1" />
<line x1="341.42" y1="408.58" x2="291.42" y2="408.58"   stroke="red" stroke-width="1" />
<line x1="291.42" y1="408.58" x2="326.78" y2="373.22"   stroke="red" stroke-width="1" />
<line x1="376.78" y1="373.22" x2="291.42" y2="408.58"   stroke="blue" stroke-width="1" />
<line x1="391.42" y1="408.58" x2="341.42" y2="408.58"   stroke="red" stroke-width="1" />
<line x1="341.42" y1="408.58" x2="376.78" y2="373.22"   stroke="red" stroke-width="1" />
<line x1="426.78" y1="373.22" x2="341.42" y2="408.58"   stroke="blue" stroke-width="1" />
<line x1="376.78" y1="373.22" x2="326.78" y2="373.22"   stroke="red" stroke-width="1" />
<line x1="326.78" y1="373.22" x2="362.13" y2="337.87"   stroke="red" stroke-width="1" />
<line x1="412.13" y1="337.87" x2="326.78" y2="373.22"   stroke="blue" stroke-width="1" />
<line x1="426.78" y1="373.22" x2="376.78" y2="373.22"   stroke="red" stroke-width="1" />
<line x1="376.78" y1="373.22" x2="412.13" y2="337.87"   stroke="red" stroke-width="1" />
<line x1="462.13" y1="337.87" x2="376.78" y2="373.22"   stroke="blue" stroke-width="1" />
<line x1="362.13" y1="337.87" x2="312.13" y2="337.87"   stroke="red" stroke-width="1" />
<line x1="312.13" y1="337.87" x2="347.49" y2="302.51"   stroke="red" stroke-width="1" />
<line x1="397.49" y1="302.51" x2="312.13" y2="337.87"   stroke="blue" stroke-width="1" />
<line x1="412.13" y1="337.87" x2="362.13" y2="337.87"   stroke="red" stroke-width="1" />
<line x1="362.13" y1="337.87" x2="397.49" y2="302.51"   stroke="red" stroke-width="1" />
<line x1="447.49" y1="302.51" x2="362.13" y2="337.87"   stroke="blue" stroke-width="1" />
<line x1="397.49" y1="302.51" x2="347.49" y2="302.51"   stroke="red" stroke-width="1" />
<line x1="347.49" y1="302.51" x2="382.84" y2="267.16"   stroke="red" stroke-width="1" />
<line x1="432.84" y1="267.16" x2="347.49" y2="302.51"   stroke="blue" stroke-width="1" />
<line x1="382.84" y1="267.16" x2="332.84" y2="267.16"   stroke="black" stroke-width="1" />
<line x1="585.36" y1="514.64" x2="650.0" y2="487.87"   stroke="blue" stroke-width="1" />
<line x1="620.71" y1="479.29" x2="650.0" y2="479.29"   stroke="red" stroke-width="1" />
<line x1="276.78" y1="373.22" x2="326.78" y2="373.22"   stroke="red" stroke-width="1" />
<line x1="591.42" y1="408.58" x2="650.0" y2="384.31"   stroke="blue" stroke-width="1" />
<line x1="626.78" y1="373.22" x2="650.0" y2="373.22"   stroke="red" stroke-width="1" />
<line x1="362.13" y1="337.87" x2="276.78" y2="373.22"   stroke="blue" stroke-width="1" />
<line x1="312.13" y1="337.87" x2="276.78" y2="373.22"   stroke="red" stroke-width="1" />
<line x1="597.49" y1="302.51" x2="650.0" y2="280.76"   stroke="blue" stroke-width="1" />
<line x1="347.49" y1="302.51" x2="297.49" y2="302.51"   stroke="red" stroke-width="1" />
<line x1="297.49" y1="302.51" x2="332.84" y2="267.16"   stroke="red" stroke-width="1" />
<line x1="382.84" y1="267.16" x2="297.49" y2="302.51"   stroke="blue" stroke-width="1" />
<line x1="332.84" y1="267.16" x2="282.84" y2="267.16"   stroke="black" stroke-width="1" />
<line x1="650.0" y1="550.0" x2="600.0" y2="550.0"   stroke="black" stroke-width="1" />
<line x1="400.0" y1="550.0" x2="350.0" y2="550.0"   stroke="black" stroke-width="1" />
<line x1="235.36" y1="514.64" x2="200.0" y2="529.29"   stroke="blue" stroke-width="1" />
<line x1="235.36" y1="514.64" x2="200.0" y2="514.64"   stroke="red" stroke-width="1" />
<line x1="200.0" y1="529.29" x2="200.0" y2="550.0"   stroke="black" stroke-width="1" />
<line x1="200.0" y1="514.64" x2="200.0" y2="529.29"   stroke="black" stroke-width="1" />
<line x1="220.71" y1="479.29" x2="200.0" y2="487.87"   stroke="blue" stroke-width="1" />
<line x1="200.0" y1="487.87" x2="200.0" y2="500.0"   stroke="black" stroke-width="1" />
<line x1="200.0" y1="479.29" x2="200.0" y2="487.87"   stroke="black" stroke-width="1" />
<line x1="200.0" y1="500.0" x2="200.0" y2="508.58"   stroke="black" stroke-width="1" />
<line x1="200.0" y1="508.58" x2="200.0" y2="514.64"   stroke="black" stroke-width="1" />
<line x1="200.0" y1="550.0" x2="235.36" y2="514.64"   stroke="red" stroke-width="1" />
<line x1="250.0" y1="550.0" x2="285.36" y2="514.64"   stroke="red" stroke-width="1" />
<line x1="335.36" y1="514.64" x2="250.0" y2="550.0"   stroke="blue" stroke-width="1" />
<line x1="220.71" y1="479.29" x2="200.0" y2="479.29"   stroke="red" stroke-width="1" />
<line x1="200.0" y1="500.0" x2="220.71" y2="479.29"   stroke="red" stroke-width="1" />
<line x1="320.71" y1="479.29" x2="270.71" y2="479.29"   stroke="red" stroke-width="1" />
<line x1="270.71" y1="479.29" x2="306.07" y2="443.93"   stroke="red" stroke-width="1" />
<line x1="356.07" y1="443.93" x2="270.71" y2="479.29"   stroke="blue" stroke-width="1" />
<line x1="206.07" y1="443.93" x2="200.0" y2="446.45"   stroke="blue" stroke-width="1" />
<line x1="206.07" y1="443.93" x2="200.0" y2="443.93"   stroke="red" stroke-width="1" />
<line x1="206.07" y1="443.93" x2="241.42" y2="408.58"   stroke="red" stroke-width="1" />
<line x1="306.07" y1="443.93" x2="256.07" y2="443.93"   stroke="red" stroke-width="1" />
<line x1="256.07" y1="443.93" x2="291.42" y2="408.58"   stroke="red" stroke-width="1" />
<line x1="341.42" y1="408.58" x2="256.07" y2="443.93"   stroke="blue" stroke-width="1" />
<line x1="226.78" y1="373.22" x2="200.0" y2="384.31"   stroke="blue" stroke-width="1" />
<line x1="226.78" y1="373.22" x2="200.0" y2="373.22"   stroke="red" stroke-width="1" />
<line x1="212.13" y1="337.87" x2="200.0" y2="342.89"   stroke="blue" stroke-width="1" />
<line x1="212.13" y1="337.87" x2="200.0" y2="337.87"   stroke="red" stroke-width="1" />
<line x1="312.13" y1="337.87" x2="262.13" y2="337.87"   stroke="red" stroke-width="1" />
<line x1="262.13" y1="337.87" x2="297.49" y2="302.51"   stroke="red" stroke-width="1" />
<line x1="347.49" y1="302.51" x2="262.13" y2="337.87"   stroke="blue" stroke-width="1" />
<line x1="200.0" y1="446.45" x2="200.0" y2="450.0"   stroke="black" stroke-width="1" />
<line x1="200.0" y1="443.93" x2="200.0" y2="446.45"   stroke="black" stroke-width="1" />
<line x1="200.0" y1="467.16" x2="200.0" y2="479.29"   stroke="black" stroke-width="1" />
<line x1="200.0" y1="450.0" x2="206.07" y2="443.93"   stroke="red" stroke-width="1" />
<line x1="200.0" y1="450.0" x2="200.0" y2="467.16"   stroke="black" stroke-width="1" />
<line x1="200.0" y1="425.74" x2="200.0" y2="443.93"   stroke="black" stroke-width="1" />
<line x1="200.0" y1="384.31" x2="200.0" y2="400.0"   stroke="black" stroke-width="1" />
<line x1="200.0" y1="373.22" x2="200.0" y2="384.31"   stroke="black" stroke-width="1" />
<line x1="200.0" y1="408.58" x2="200.0" y2="425.74"   stroke="black" stroke-width="1" />
<line x1="200.0" y1="400.0" x2="226.78" y2="373.22"   stroke="red" stroke-width="1" />
<line x1="200.0" y1="400.0" x2="200.0" y2="405.03"   stroke="black" stroke-width="1" />
<line x1="200.0" y1="342.89" x2="200.0" y2="350.0"   stroke="black" stroke-width="1" />
<line x1="200.0" y1="337.87" x2="200.0" y2="342.89"   stroke="black" stroke-width="1" />
<line x1="200.0" y1="363.6" x2="200.0" y2="373.22"   stroke="black" stroke-width="1" />
<line x1="200.0" y1="350.0" x2="212.13" y2="337.87"   stroke="red" stroke-width="1" />
<line x1="200.0" y1="350.0" x2="200.0" y2="363.6"   stroke="black" stroke-width="1" />
<line x1="200.0" y1="322.18" x2="200.0" y2="337.87"   stroke="black" stroke-width="1" />
<line x1="200.0" y1="280.76" x2="200.0" y2="300.0"   stroke="black" stroke-width="1" />
<line x1="200.0" y1="267.16" x2="200.0" y2="280.76"   stroke="black" stroke-width="1" />
<line x1="200.0" y1="302.51" x2="200.0" y2="322.18"   stroke="black" stroke-width="1" />
<line x1="200.0" y1="300.0" x2="200.0" y2="301.47"   stroke="black" stroke-width="1" />
<line x1="200.0" y1="405.03" x2="200.0" y2="408.58"   stroke="black" stroke-width="1" />
<line x1="200.0" y1="301.47" x2="200.0" y2="302.51"   stroke="black" stroke-width="1" />
<line x1="241.42" y1="408.58" x2="200.0" y2="425.74"   stroke="blue" stroke-width="1" />
<line x1="241.42" y1="408.58" x2="200.0" y2="408.58"   stroke="red" stroke-width="1" />
<line x1="247.49" y1="302.51" x2="200.0" y2="322.18"   stroke="blue" stroke-width="1" />
<line x1="212.13" y1="337.87" x2="247.49" y2="302.51"   stroke="red" stroke-width="1" />
<line x1="247.49" y1="302.51" x2="200.0" y2="302.51"   stroke="red" stroke-width="1" />
<line x1="200.0" y1="300.0" x2="232.84" y2="267.16"   stroke="red" stroke-width="1" />
<line x1="200.0" y1="280.76" x2="232.84" y2="267.16"   stroke="blue" stroke-width="1" />
<line x1="200.0" y1="550.0" x2="250.0" y2="550.0"   stroke="black" stroke-width="1" />
<line x1="250.0" y1="550.0" x2="300.0" y2="550.0"   stroke="black" stroke-width="1" />
<line x1="285.36" y1="514.64" x2="200.0" y2="550.0"   stroke="blue" stroke-width="1" />
<line x1="285.36" y1="514.64" x2="235.36" y2="514.64"   stroke="red" stroke-width="1" />
<line x1="270.71" y1="479.29" x2="200.0" y2="508.58"   stroke="blue" stroke-width="1" />
<line x1="256.07" y1="443.93" x2="200.0" y2="467.16"   stroke="blue" stroke-width="1" />
<line x1="256.07" y1="443.93" x2="206.07" y2="443.93"   stroke="red" stroke-width="1" />
<line x1="276.78" y1="373.22" x2="200.0" y2="405.03"   stroke="blue" stroke-width="1" />
<line x1="276.78" y1="373.22" x2="226.78" y2="373.22"   stroke="red" stroke-width="1" />
<line x1="262.13" y1="337.87" x2="200.0" y2="363.6"   stroke="blue" stroke-width="1" />
<line x1="262.13" y1="337.87" x2="212.13" y2="337.87"   stroke="red" stroke-width="1" />
<line x1="235.36" y1="514.64" x2="270.71" y2="479.29"   stroke="red" stroke-width="1" />
<line x1="320.71" y1="479.29" x2="235.36" y2="514.64"   stroke="blue" stroke-width="1" />
<line x1="291.42" y1="408.58" x2="206.07" y2="443.93"   stroke="blue" stroke-width="1" />
<line x1="291.42" y1="408.58" x2="241.42" y2="408.58"   stroke="red" stroke-width="1" />
<line x1="241.42" y1="408.58" x2="276.78" y2="373.22"   stroke="red" stroke-width="1" />
<line x1="326.78" y1="373.22" x2="241.42" y2="408.58"   stroke="blue" stroke-width="1" />
<line x1="220.71" y1="479.29" x2="270.71" y2="479.29"   stroke="red" stroke-width="1" />
<line x1="306.07" y1="443.93" x2="220.71" y2="479.29"   stroke="blue" stroke-width="1" />
<line x1="256.07" y1="443.93" x2="220.71" y2="479.29"   stroke="red" stroke-width="1" />
<line x1="312.13" y1="337.87" x2="226.78" y2="373.22"   stroke="blue" stroke-width="1" />
<line x1="262.13" y1="337.87" x2="226.78" y2="373.22"   stroke="red" stroke-width="1" />
<line x1="297.49" y1="302.51" x2="212.13" y2="337.87"   stroke="blue" stroke-width="1" />
<line x1="282.84" y1="267.16" x2="200.0" y2="301.47"   stroke="blue" stroke-width="1" />
<line x1="297.49" y1="302.51" x2="247.49" y2="302.51"   stroke="red" stroke-width="1" />
<line x1="247.49" y1="302.51" x2="282.84" y2="267.16"   stroke="red" stroke-width="1" />
<line x1="332.84" y1="267.16" x2="247.49" y2="302.51"   stroke="blue" stroke-width="1" />
<line x1="650.0" y1="267.16" x2="632.84" y2="267.16"   stroke="black" stroke-width="1" />
<line x1="432.84" y1="267.16" x2="382.84" y2="267.16"   stroke="black" stroke-width="1" />
<line x1="482.84" y1="267.16" x2="432.84" y2="267.16"   stroke="black" stroke-width="1" />
<line x1="532.84" y1="267.16" x2="482.84" y2="267.16"   stroke="black" stroke-width="1" />
<line x1="582.84" y1="267.16" x2="532.84" y2="267.16"   stroke="black" stroke-width="1" />
<line x1="632.84" y1="267.16" x2="582.84" y2="267.16"   stroke="black" stroke-width="1" />
<line x1="282.84" y1="267.16" x2="232.84" y2="267.16"   stroke="black" stroke-width="1" />
<line x1="232.84" y1="267.16" x2="200.0" y2="267.16"   stroke="black" stroke-width="1" />
</g>
<g id="text">
</g>
</svg>
