G04 EAGLE Gerber RS-274X export*
G75*
%MOMM*%
%FSLAX34Y34*%
%LPD*%
%INSilkscreen Top*%
%IPPOS*%
%AMOC8*
5,1,8,0,0,1.08239X$1,22.5*%
G01*
G04 Define Apertures*
%ADD10R,0.400000X0.400000*%
%ADD11C,0.127000*%
%ADD12C,0.508000*%
%ADD13C,0.200000*%
G36*
X363400Y523542D02*
X351059Y523542D01*
X351059Y527624D01*
X351065Y528010D01*
X351084Y528385D01*
X351115Y528749D01*
X351158Y529102D01*
X351213Y529444D01*
X351280Y529774D01*
X351360Y530093D01*
X351452Y530401D01*
X351557Y530698D01*
X351673Y530984D01*
X351802Y531258D01*
X351944Y531522D01*
X352097Y531774D01*
X352263Y532015D01*
X352441Y532244D01*
X352631Y532463D01*
X352833Y532669D01*
X353045Y532862D01*
X353268Y533042D01*
X353500Y533208D01*
X353744Y533361D01*
X353997Y533501D01*
X354261Y533627D01*
X354535Y533740D01*
X354820Y533840D01*
X355115Y533927D01*
X355420Y534000D01*
X355736Y534060D01*
X356062Y534106D01*
X356399Y534140D01*
X356745Y534160D01*
X357103Y534166D01*
X357573Y534155D01*
X358027Y534120D01*
X358468Y534062D01*
X358893Y533980D01*
X359303Y533876D01*
X359698Y533748D01*
X360079Y533596D01*
X360444Y533422D01*
X360792Y533226D01*
X361118Y533011D01*
X361424Y532776D01*
X361709Y532522D01*
X361972Y532248D01*
X362215Y531955D01*
X362437Y531643D01*
X362638Y531311D01*
X362817Y530963D01*
X362971Y530602D01*
X363102Y530227D01*
X363210Y529840D01*
X363293Y529439D01*
X363352Y529025D01*
X363388Y528598D01*
X363400Y528158D01*
X363400Y523542D01*
G37*
%LPC*%
G36*
X362060Y525215D02*
X362060Y527965D01*
X362051Y528300D01*
X362023Y528624D01*
X361976Y528937D01*
X361911Y529241D01*
X361827Y529534D01*
X361725Y529817D01*
X361604Y530090D01*
X361464Y530352D01*
X361307Y530602D01*
X361134Y530837D01*
X360944Y531057D01*
X360737Y531262D01*
X360515Y531452D01*
X360275Y531627D01*
X360020Y531788D01*
X359748Y531933D01*
X359461Y532062D01*
X359162Y532174D01*
X358850Y532269D01*
X358526Y532347D01*
X358189Y532407D01*
X357839Y532450D01*
X357477Y532476D01*
X357103Y532485D01*
X356546Y532465D01*
X356023Y532406D01*
X355535Y532308D01*
X355081Y532171D01*
X354660Y531994D01*
X354274Y531778D01*
X353922Y531522D01*
X353604Y531228D01*
X353321Y530896D01*
X353077Y530529D01*
X352870Y530127D01*
X352700Y529690D01*
X352569Y529217D01*
X352475Y528710D01*
X352418Y528167D01*
X352399Y527589D01*
X352399Y525215D01*
X362060Y525215D01*
G37*
%LPD*%
G36*
X363400Y536375D02*
X362060Y536375D01*
X362060Y539519D01*
X352566Y539519D01*
X354554Y536734D01*
X353065Y536734D01*
X351059Y539650D01*
X351059Y541104D01*
X362060Y541104D01*
X362060Y544108D01*
X363400Y544108D01*
X363400Y536375D01*
G37*
G36*
X153400Y381142D02*
X141059Y381142D01*
X141059Y385224D01*
X141065Y385610D01*
X141084Y385985D01*
X141115Y386349D01*
X141158Y386702D01*
X141213Y387044D01*
X141280Y387374D01*
X141360Y387693D01*
X141452Y388001D01*
X141557Y388298D01*
X141673Y388584D01*
X141802Y388858D01*
X141944Y389122D01*
X142097Y389374D01*
X142263Y389615D01*
X142441Y389844D01*
X142631Y390063D01*
X142833Y390269D01*
X143045Y390462D01*
X143268Y390642D01*
X143500Y390808D01*
X143744Y390961D01*
X143997Y391101D01*
X144261Y391227D01*
X144535Y391340D01*
X144820Y391440D01*
X145115Y391527D01*
X145420Y391600D01*
X145736Y391660D01*
X146062Y391706D01*
X146399Y391740D01*
X146745Y391760D01*
X147103Y391766D01*
X147573Y391755D01*
X148027Y391720D01*
X148468Y391662D01*
X148893Y391580D01*
X149303Y391476D01*
X149698Y391348D01*
X150079Y391196D01*
X150444Y391022D01*
X150792Y390826D01*
X151118Y390611D01*
X151424Y390376D01*
X151709Y390122D01*
X151972Y389848D01*
X152215Y389555D01*
X152437Y389243D01*
X152638Y388911D01*
X152817Y388563D01*
X152971Y388202D01*
X153102Y387827D01*
X153210Y387440D01*
X153293Y387039D01*
X153352Y386625D01*
X153388Y386198D01*
X153400Y385758D01*
X153400Y381142D01*
G37*
%LPC*%
G36*
X152060Y382815D02*
X152060Y385565D01*
X152051Y385900D01*
X152023Y386224D01*
X151976Y386537D01*
X151911Y386841D01*
X151827Y387134D01*
X151725Y387417D01*
X151604Y387690D01*
X151464Y387952D01*
X151307Y388202D01*
X151134Y388437D01*
X150944Y388657D01*
X150737Y388862D01*
X150515Y389052D01*
X150275Y389227D01*
X150020Y389388D01*
X149748Y389533D01*
X149461Y389662D01*
X149162Y389774D01*
X148850Y389869D01*
X148526Y389947D01*
X148189Y390007D01*
X147839Y390050D01*
X147477Y390076D01*
X147103Y390085D01*
X146546Y390065D01*
X146023Y390006D01*
X145535Y389908D01*
X145081Y389771D01*
X144660Y389594D01*
X144274Y389378D01*
X143922Y389122D01*
X143604Y388828D01*
X143321Y388496D01*
X143077Y388129D01*
X142870Y387727D01*
X142700Y387290D01*
X142569Y386817D01*
X142475Y386310D01*
X142418Y385767D01*
X142399Y385189D01*
X142399Y382815D01*
X152060Y382815D01*
G37*
%LPD*%
G36*
X153400Y393510D02*
X152288Y393510D01*
X151790Y393746D01*
X151323Y394006D01*
X150886Y394291D01*
X150479Y394601D01*
X150096Y394927D01*
X149732Y395261D01*
X149387Y395603D01*
X149060Y395954D01*
X148448Y396660D01*
X147882Y397360D01*
X147339Y398022D01*
X146796Y398617D01*
X146521Y398884D01*
X146240Y399124D01*
X145952Y399337D01*
X145657Y399523D01*
X145350Y399675D01*
X145022Y399783D01*
X144675Y399848D01*
X144309Y399869D01*
X144062Y399860D01*
X143829Y399832D01*
X143611Y399785D01*
X143407Y399720D01*
X143217Y399636D01*
X143041Y399534D01*
X142879Y399413D01*
X142732Y399274D01*
X142601Y399117D01*
X142487Y398947D01*
X142391Y398762D01*
X142312Y398562D01*
X142250Y398348D01*
X142207Y398119D01*
X142180Y397876D01*
X142172Y397618D01*
X142180Y397372D01*
X142206Y397137D01*
X142249Y396913D01*
X142308Y396700D01*
X142385Y396498D01*
X142479Y396307D01*
X142591Y396127D01*
X142719Y395958D01*
X142863Y395804D01*
X143020Y395666D01*
X143192Y395545D01*
X143377Y395441D01*
X143576Y395353D01*
X143789Y395283D01*
X144016Y395229D01*
X144256Y395192D01*
X144107Y393581D01*
X143747Y393638D01*
X143405Y393725D01*
X143082Y393839D01*
X142778Y393982D01*
X142493Y394154D01*
X142227Y394353D01*
X141980Y394581D01*
X141751Y394837D01*
X141546Y395117D01*
X141368Y395417D01*
X141217Y395735D01*
X141094Y396073D01*
X140998Y396431D01*
X140930Y396807D01*
X140889Y397203D01*
X140875Y397618D01*
X140889Y398071D01*
X140930Y398497D01*
X140999Y398896D01*
X141095Y399268D01*
X141219Y399613D01*
X141370Y399931D01*
X141549Y400222D01*
X141756Y400487D01*
X141987Y400722D01*
X142242Y400925D01*
X142520Y401098D01*
X142821Y401239D01*
X143145Y401348D01*
X143492Y401427D01*
X143863Y401474D01*
X144256Y401489D01*
X144615Y401469D01*
X144972Y401407D01*
X145328Y401305D01*
X145684Y401161D01*
X146038Y400977D01*
X146393Y400753D01*
X146748Y400489D01*
X147103Y400184D01*
X147506Y399786D01*
X148007Y399241D01*
X148605Y398547D01*
X149301Y397706D01*
X149703Y397228D01*
X150084Y396801D01*
X150445Y396426D01*
X150786Y396103D01*
X151113Y395826D01*
X151435Y395591D01*
X151750Y395397D01*
X152060Y395245D01*
X152060Y401682D01*
X153400Y401682D01*
X153400Y393510D01*
G37*
G36*
X363400Y235242D02*
X351059Y235242D01*
X351059Y239324D01*
X351065Y239710D01*
X351084Y240085D01*
X351115Y240449D01*
X351158Y240802D01*
X351213Y241144D01*
X351280Y241474D01*
X351360Y241793D01*
X351452Y242101D01*
X351557Y242398D01*
X351673Y242684D01*
X351802Y242958D01*
X351944Y243222D01*
X352097Y243474D01*
X352263Y243715D01*
X352441Y243944D01*
X352631Y244163D01*
X352833Y244369D01*
X353045Y244562D01*
X353268Y244742D01*
X353500Y244908D01*
X353744Y245061D01*
X353997Y245201D01*
X354261Y245327D01*
X354535Y245440D01*
X354820Y245540D01*
X355115Y245627D01*
X355420Y245700D01*
X355736Y245760D01*
X356062Y245806D01*
X356399Y245840D01*
X356745Y245860D01*
X357103Y245866D01*
X357573Y245855D01*
X358027Y245820D01*
X358468Y245762D01*
X358893Y245680D01*
X359303Y245576D01*
X359698Y245448D01*
X360079Y245296D01*
X360444Y245122D01*
X360792Y244926D01*
X361118Y244711D01*
X361424Y244476D01*
X361709Y244222D01*
X361972Y243948D01*
X362215Y243655D01*
X362437Y243343D01*
X362638Y243011D01*
X362817Y242663D01*
X362971Y242302D01*
X363102Y241927D01*
X363210Y241540D01*
X363293Y241139D01*
X363352Y240725D01*
X363388Y240298D01*
X363400Y239858D01*
X363400Y235242D01*
G37*
%LPC*%
G36*
X362060Y236915D02*
X362060Y239665D01*
X362051Y240000D01*
X362023Y240324D01*
X361976Y240637D01*
X361911Y240941D01*
X361827Y241234D01*
X361725Y241517D01*
X361604Y241790D01*
X361464Y242052D01*
X361307Y242302D01*
X361134Y242537D01*
X360944Y242757D01*
X360737Y242962D01*
X360515Y243152D01*
X360275Y243327D01*
X360020Y243488D01*
X359748Y243633D01*
X359461Y243762D01*
X359162Y243874D01*
X358850Y243969D01*
X358526Y244047D01*
X358189Y244107D01*
X357839Y244150D01*
X357477Y244176D01*
X357103Y244185D01*
X356546Y244165D01*
X356023Y244106D01*
X355535Y244008D01*
X355081Y243871D01*
X354660Y243694D01*
X354274Y243478D01*
X353922Y243222D01*
X353604Y242928D01*
X353321Y242596D01*
X353077Y242229D01*
X352870Y241827D01*
X352700Y241390D01*
X352569Y240917D01*
X352475Y240410D01*
X352418Y239867D01*
X352399Y239289D01*
X352399Y236915D01*
X362060Y236915D01*
G37*
%LPD*%
G36*
X360229Y247391D02*
X360081Y249021D01*
X360346Y249068D01*
X360594Y249132D01*
X360825Y249211D01*
X361039Y249307D01*
X361235Y249419D01*
X361415Y249546D01*
X361577Y249690D01*
X361723Y249850D01*
X361851Y250027D01*
X361962Y250219D01*
X362056Y250427D01*
X362133Y250651D01*
X362193Y250892D01*
X362236Y251148D01*
X362262Y251421D01*
X362270Y251709D01*
X362261Y251999D01*
X362234Y252273D01*
X362188Y252531D01*
X362123Y252773D01*
X362041Y252998D01*
X361940Y253208D01*
X361821Y253402D01*
X361683Y253579D01*
X361528Y253738D01*
X361354Y253876D01*
X361163Y253993D01*
X360954Y254088D01*
X360727Y254163D01*
X360483Y254216D01*
X360221Y254248D01*
X359940Y254258D01*
X359696Y254246D01*
X359464Y254210D01*
X359247Y254149D01*
X359044Y254064D01*
X358854Y253955D01*
X358678Y253822D01*
X358516Y253665D01*
X358368Y253483D01*
X358236Y253279D01*
X358121Y253053D01*
X358024Y252805D01*
X357945Y252536D01*
X357883Y252246D01*
X357839Y251934D01*
X357812Y251600D01*
X357803Y251245D01*
X357803Y250352D01*
X356437Y250352D01*
X356437Y251210D01*
X356428Y251525D01*
X356402Y251822D01*
X356358Y252100D01*
X356296Y252361D01*
X356216Y252603D01*
X356119Y252827D01*
X356004Y253033D01*
X355872Y253220D01*
X355724Y253388D01*
X355563Y253533D01*
X355387Y253655D01*
X355199Y253756D01*
X354997Y253834D01*
X354781Y253889D01*
X354552Y253923D01*
X354309Y253934D01*
X354068Y253925D01*
X353840Y253898D01*
X353625Y253852D01*
X353423Y253789D01*
X353234Y253707D01*
X353058Y253606D01*
X352895Y253488D01*
X352745Y253352D01*
X352611Y253197D01*
X352494Y253025D01*
X352396Y252835D01*
X352315Y252628D01*
X352252Y252403D01*
X352207Y252160D01*
X352181Y251900D01*
X352172Y251622D01*
X352180Y251368D01*
X352205Y251126D01*
X352247Y250896D01*
X352305Y250679D01*
X352380Y250475D01*
X352472Y250283D01*
X352581Y250103D01*
X352706Y249936D01*
X352846Y249783D01*
X353000Y249648D01*
X353168Y249529D01*
X353350Y249427D01*
X353545Y249342D01*
X353754Y249273D01*
X353976Y249222D01*
X354212Y249187D01*
X354090Y247602D01*
X353721Y247660D01*
X353374Y247746D01*
X353047Y247861D01*
X352741Y248003D01*
X352456Y248175D01*
X352191Y248374D01*
X351948Y248602D01*
X351725Y248859D01*
X351526Y249139D01*
X351353Y249438D01*
X351207Y249757D01*
X351088Y250095D01*
X350995Y250452D01*
X350928Y250828D01*
X350889Y251224D01*
X350875Y251639D01*
X350889Y252091D01*
X350929Y252516D01*
X350997Y252916D01*
X351091Y253289D01*
X351212Y253637D01*
X351361Y253959D01*
X351536Y254255D01*
X351738Y254525D01*
X351964Y254767D01*
X352212Y254976D01*
X352481Y255152D01*
X352770Y255297D01*
X353082Y255410D01*
X353414Y255490D01*
X353767Y255538D01*
X354142Y255554D01*
X354431Y255544D01*
X354706Y255513D01*
X354967Y255461D01*
X355214Y255389D01*
X355447Y255296D01*
X355667Y255182D01*
X355873Y255048D01*
X356065Y254893D01*
X356242Y254718D01*
X356405Y254525D01*
X356553Y254313D01*
X356686Y254082D01*
X356803Y253832D01*
X356906Y253564D01*
X356994Y253277D01*
X357068Y252971D01*
X357103Y252971D01*
X357150Y253307D01*
X357216Y253624D01*
X357303Y253922D01*
X357409Y254201D01*
X357535Y254461D01*
X357681Y254702D01*
X357846Y254923D01*
X358031Y255125D01*
X358232Y255306D01*
X358446Y255462D01*
X358672Y255595D01*
X358911Y255703D01*
X359163Y255788D01*
X359427Y255848D01*
X359704Y255884D01*
X359993Y255896D01*
X360408Y255879D01*
X360799Y255828D01*
X361166Y255743D01*
X361508Y255625D01*
X361827Y255472D01*
X362121Y255285D01*
X362392Y255065D01*
X362638Y254810D01*
X362858Y254524D01*
X363048Y254209D01*
X363209Y253865D01*
X363341Y253492D01*
X363443Y253090D01*
X363517Y252659D01*
X363561Y252199D01*
X363575Y251709D01*
X363562Y251253D01*
X363522Y250820D01*
X363456Y250410D01*
X363364Y250025D01*
X363245Y249662D01*
X363100Y249324D01*
X362928Y249009D01*
X362730Y248718D01*
X362506Y248453D01*
X362257Y248217D01*
X361982Y248008D01*
X361682Y247828D01*
X361357Y247677D01*
X361006Y247553D01*
X360631Y247458D01*
X360229Y247391D01*
G37*
G36*
X361500Y563797D02*
X351632Y563797D01*
X351632Y568440D01*
X351643Y568845D01*
X351678Y569226D01*
X351737Y569583D01*
X351818Y569917D01*
X351923Y570227D01*
X352051Y570513D01*
X352203Y570775D01*
X352378Y571014D01*
X352573Y571227D01*
X352787Y571411D01*
X353019Y571567D01*
X353270Y571694D01*
X353538Y571793D01*
X353825Y571864D01*
X354131Y571907D01*
X354454Y571921D01*
X354724Y571911D01*
X354982Y571881D01*
X355230Y571831D01*
X355466Y571761D01*
X355692Y571671D01*
X355907Y571561D01*
X356110Y571430D01*
X356303Y571280D01*
X356482Y571112D01*
X356643Y570929D01*
X356787Y570731D01*
X356840Y570642D01*
X356914Y570518D01*
X357024Y570289D01*
X357116Y570045D01*
X357191Y569786D01*
X357249Y569512D01*
X359058Y570704D01*
X361500Y572313D01*
X361500Y570772D01*
X357403Y568209D01*
X357403Y565134D01*
X361500Y565134D01*
X361500Y563797D01*
G37*
%LPC*%
G36*
X356345Y565134D02*
X356345Y568363D01*
X356338Y568620D01*
X356314Y568862D01*
X356276Y569089D01*
X356222Y569301D01*
X356152Y569498D01*
X356068Y569680D01*
X355967Y569847D01*
X355851Y569998D01*
X355722Y570134D01*
X355580Y570251D01*
X355426Y570351D01*
X355259Y570432D01*
X355080Y570495D01*
X354888Y570540D01*
X354684Y570567D01*
X354468Y570576D01*
X354259Y570567D01*
X354063Y570540D01*
X353880Y570494D01*
X353709Y570430D01*
X353551Y570348D01*
X353407Y570247D01*
X353274Y570129D01*
X353155Y569991D01*
X353049Y569837D01*
X352957Y569667D01*
X352880Y569480D01*
X352816Y569278D01*
X352767Y569059D01*
X352732Y568825D01*
X352710Y568574D01*
X352703Y568307D01*
X352703Y565134D01*
X356345Y565134D01*
G37*
%LPD*%
G36*
X361500Y574056D02*
X360428Y574056D01*
X360428Y576571D01*
X352836Y576571D01*
X354426Y574343D01*
X353236Y574343D01*
X351632Y576676D01*
X351632Y577838D01*
X360428Y577838D01*
X360428Y580241D01*
X361500Y580241D01*
X361500Y574056D01*
G37*
G36*
X361500Y512997D02*
X351632Y512997D01*
X351632Y517640D01*
X351643Y518045D01*
X351678Y518426D01*
X351737Y518783D01*
X351818Y519117D01*
X351923Y519427D01*
X352051Y519713D01*
X352203Y519975D01*
X352378Y520214D01*
X352573Y520427D01*
X352787Y520611D01*
X353019Y520767D01*
X353270Y520894D01*
X353538Y520993D01*
X353825Y521064D01*
X354131Y521107D01*
X354454Y521121D01*
X354724Y521111D01*
X354982Y521081D01*
X355230Y521031D01*
X355466Y520961D01*
X355692Y520871D01*
X355907Y520761D01*
X356110Y520630D01*
X356303Y520480D01*
X356482Y520312D01*
X356643Y520129D01*
X356787Y519931D01*
X356840Y519842D01*
X356914Y519718D01*
X357024Y519489D01*
X357116Y519245D01*
X357191Y518986D01*
X357249Y518712D01*
X359058Y519904D01*
X361500Y521513D01*
X361500Y519972D01*
X357403Y517409D01*
X357403Y514334D01*
X361500Y514334D01*
X361500Y512997D01*
G37*
%LPC*%
G36*
X356345Y514334D02*
X356345Y517563D01*
X356338Y517820D01*
X356314Y518062D01*
X356276Y518289D01*
X356222Y518501D01*
X356152Y518698D01*
X356068Y518880D01*
X355967Y519047D01*
X355851Y519198D01*
X355722Y519334D01*
X355580Y519451D01*
X355426Y519551D01*
X355259Y519632D01*
X355080Y519695D01*
X354888Y519740D01*
X354684Y519767D01*
X354468Y519776D01*
X354259Y519767D01*
X354063Y519740D01*
X353880Y519694D01*
X353709Y519630D01*
X353551Y519548D01*
X353407Y519447D01*
X353274Y519329D01*
X353155Y519191D01*
X353049Y519037D01*
X352957Y518867D01*
X352880Y518680D01*
X352816Y518478D01*
X352767Y518259D01*
X352732Y518025D01*
X352710Y517774D01*
X352703Y517507D01*
X352703Y514334D01*
X356345Y514334D01*
G37*
%LPD*%
G36*
X361500Y522885D02*
X360611Y522885D01*
X360213Y523074D01*
X359839Y523282D01*
X359490Y523510D01*
X359164Y523757D01*
X358567Y524285D01*
X358030Y524839D01*
X357540Y525404D01*
X357088Y525963D01*
X356653Y526493D01*
X356219Y526968D01*
X355999Y527182D01*
X355774Y527374D01*
X355544Y527544D01*
X355309Y527693D01*
X355063Y527814D01*
X354801Y527901D01*
X354523Y527953D01*
X354230Y527970D01*
X354033Y527962D01*
X353847Y527940D01*
X353672Y527903D01*
X353509Y527851D01*
X353357Y527784D01*
X353216Y527702D01*
X353087Y527605D01*
X352969Y527494D01*
X352864Y527369D01*
X352773Y527232D01*
X352696Y527084D01*
X352633Y526925D01*
X352584Y526753D01*
X352549Y526570D01*
X352528Y526376D01*
X352521Y526170D01*
X352528Y525973D01*
X352549Y525785D01*
X352583Y525606D01*
X352631Y525435D01*
X352692Y525274D01*
X352767Y525121D01*
X352959Y524843D01*
X353074Y524719D01*
X353200Y524609D01*
X353337Y524512D01*
X353485Y524429D01*
X353644Y524359D01*
X353814Y524302D01*
X353996Y524259D01*
X354188Y524230D01*
X354069Y522941D01*
X353781Y522988D01*
X353507Y523057D01*
X353249Y523148D01*
X353006Y523262D01*
X352778Y523399D01*
X352565Y523559D01*
X352368Y523741D01*
X352185Y523946D01*
X352021Y524170D01*
X351879Y524410D01*
X351758Y524664D01*
X351660Y524935D01*
X351583Y525220D01*
X351528Y525521D01*
X351496Y525838D01*
X351485Y526170D01*
X351496Y526532D01*
X351529Y526873D01*
X351584Y527192D01*
X351661Y527489D01*
X351760Y527765D01*
X351881Y528020D01*
X352024Y528252D01*
X352189Y528464D01*
X352374Y528652D01*
X352577Y528814D01*
X352800Y528952D01*
X353040Y529065D01*
X353300Y529153D01*
X353577Y529215D01*
X353873Y529253D01*
X354188Y529266D01*
X354475Y529249D01*
X354761Y529200D01*
X355046Y529118D01*
X355330Y529003D01*
X355613Y528856D01*
X355897Y528676D01*
X356181Y528465D01*
X356464Y528222D01*
X356787Y527904D01*
X357187Y527467D01*
X357666Y526913D01*
X358222Y526240D01*
X358848Y525517D01*
X359137Y525217D01*
X359409Y524958D01*
X359671Y524737D01*
X359929Y524549D01*
X360181Y524394D01*
X360428Y524272D01*
X360428Y529420D01*
X361500Y529420D01*
X361500Y522885D01*
G37*
G36*
X361500Y462197D02*
X351632Y462197D01*
X351632Y466840D01*
X351643Y467245D01*
X351678Y467626D01*
X351737Y467983D01*
X351818Y468317D01*
X351923Y468627D01*
X352051Y468913D01*
X352203Y469175D01*
X352378Y469414D01*
X352573Y469627D01*
X352787Y469811D01*
X353019Y469967D01*
X353270Y470094D01*
X353538Y470193D01*
X353825Y470264D01*
X354131Y470307D01*
X354454Y470321D01*
X354724Y470311D01*
X354982Y470281D01*
X355230Y470231D01*
X355466Y470161D01*
X355692Y470071D01*
X355907Y469961D01*
X356110Y469830D01*
X356303Y469680D01*
X356482Y469512D01*
X356643Y469329D01*
X356787Y469131D01*
X356840Y469042D01*
X356914Y468918D01*
X357024Y468689D01*
X357116Y468445D01*
X357191Y468186D01*
X357249Y467912D01*
X359058Y469104D01*
X361500Y470713D01*
X361500Y469172D01*
X357403Y466609D01*
X357403Y463534D01*
X361500Y463534D01*
X361500Y462197D01*
G37*
%LPC*%
G36*
X356345Y463534D02*
X356345Y466763D01*
X356338Y467020D01*
X356314Y467262D01*
X356276Y467489D01*
X356222Y467701D01*
X356152Y467898D01*
X356068Y468080D01*
X355967Y468247D01*
X355851Y468398D01*
X355722Y468534D01*
X355580Y468651D01*
X355426Y468751D01*
X355259Y468832D01*
X355080Y468895D01*
X354888Y468940D01*
X354684Y468967D01*
X354468Y468976D01*
X354259Y468967D01*
X354063Y468940D01*
X353880Y468894D01*
X353709Y468830D01*
X353551Y468748D01*
X353407Y468647D01*
X353274Y468529D01*
X353155Y468391D01*
X353049Y468237D01*
X352957Y468067D01*
X352880Y467880D01*
X352816Y467678D01*
X352767Y467459D01*
X352732Y467225D01*
X352710Y466974D01*
X352703Y466707D01*
X352703Y463534D01*
X356345Y463534D01*
G37*
%LPD*%
G36*
X358965Y471910D02*
X358846Y473213D01*
X359058Y473251D01*
X359256Y473302D01*
X359441Y473365D01*
X359612Y473442D01*
X359769Y473531D01*
X359913Y473633D01*
X360043Y473748D01*
X360159Y473876D01*
X360261Y474017D01*
X360350Y474171D01*
X360426Y474337D01*
X360487Y474517D01*
X360535Y474709D01*
X360569Y474914D01*
X360590Y475132D01*
X360597Y475363D01*
X360589Y475595D01*
X360567Y475814D01*
X360531Y476020D01*
X360479Y476213D01*
X360413Y476394D01*
X360333Y476561D01*
X360237Y476716D01*
X360127Y476858D01*
X360003Y476985D01*
X359864Y477096D01*
X359711Y477189D01*
X359544Y477265D01*
X359363Y477325D01*
X359167Y477367D01*
X358958Y477393D01*
X358734Y477401D01*
X358538Y477391D01*
X358353Y477362D01*
X358179Y477314D01*
X358017Y477246D01*
X357865Y477159D01*
X357724Y477052D01*
X357595Y476926D01*
X357476Y476781D01*
X357370Y476618D01*
X357279Y476437D01*
X357201Y476239D01*
X357138Y476024D01*
X357088Y475792D01*
X357053Y475542D01*
X357032Y475276D01*
X357025Y474992D01*
X357025Y474277D01*
X355932Y474277D01*
X355932Y474964D01*
X355925Y475216D01*
X355904Y475453D01*
X355868Y475676D01*
X355819Y475884D01*
X355756Y476077D01*
X355678Y476257D01*
X355586Y476421D01*
X355480Y476571D01*
X355362Y476705D01*
X355233Y476821D01*
X355093Y476919D01*
X354942Y476999D01*
X354780Y477062D01*
X354608Y477106D01*
X354424Y477133D01*
X354230Y477142D01*
X354037Y477135D01*
X353855Y477113D01*
X353683Y477076D01*
X353522Y477025D01*
X353371Y476960D01*
X353230Y476880D01*
X353100Y476785D01*
X352980Y476676D01*
X352872Y476553D01*
X352779Y476415D01*
X352700Y476263D01*
X352636Y476097D01*
X352586Y475917D01*
X352550Y475723D01*
X352528Y475515D01*
X352521Y475293D01*
X352528Y475089D01*
X352548Y474896D01*
X352581Y474713D01*
X352628Y474539D01*
X352688Y474376D01*
X352761Y474222D01*
X352848Y474078D01*
X352948Y473945D01*
X353061Y473823D01*
X353184Y473714D01*
X353318Y473619D01*
X353463Y473538D01*
X353619Y473469D01*
X353786Y473415D01*
X353964Y473374D01*
X354153Y473346D01*
X354055Y472078D01*
X353760Y472124D01*
X353482Y472193D01*
X353221Y472285D01*
X352976Y472399D01*
X352748Y472536D01*
X352537Y472696D01*
X352342Y472878D01*
X352164Y473083D01*
X352005Y473307D01*
X351867Y473547D01*
X351750Y473801D01*
X351654Y474072D01*
X351580Y474357D01*
X351527Y474658D01*
X351495Y474975D01*
X351485Y475307D01*
X351495Y475668D01*
X351528Y476008D01*
X351582Y476327D01*
X351657Y476626D01*
X351754Y476904D01*
X351873Y477162D01*
X352013Y477399D01*
X352174Y477615D01*
X352355Y477808D01*
X352553Y477975D01*
X352768Y478116D01*
X353000Y478232D01*
X353249Y478322D01*
X353515Y478386D01*
X353797Y478425D01*
X354097Y478438D01*
X354328Y478429D01*
X354548Y478405D01*
X354756Y478363D01*
X354954Y478305D01*
X355141Y478231D01*
X355316Y478140D01*
X355481Y478033D01*
X355634Y477909D01*
X355776Y477769D01*
X355906Y477614D01*
X356025Y477445D01*
X356131Y477260D01*
X356225Y477060D01*
X356307Y476846D01*
X356378Y476616D01*
X356436Y476371D01*
X356464Y476371D01*
X356502Y476640D01*
X356555Y476894D01*
X356625Y477132D01*
X356709Y477355D01*
X356810Y477563D01*
X356927Y477756D01*
X357059Y477933D01*
X357207Y478094D01*
X357368Y478239D01*
X357539Y478364D01*
X357720Y478470D01*
X357911Y478557D01*
X358112Y478624D01*
X358323Y478672D01*
X358544Y478701D01*
X358776Y478711D01*
X359107Y478697D01*
X359420Y478656D01*
X359713Y478589D01*
X359987Y478494D01*
X360242Y478371D01*
X360477Y478222D01*
X360694Y478046D01*
X360891Y477842D01*
X361066Y477614D01*
X361219Y477362D01*
X361347Y477086D01*
X361453Y476788D01*
X361535Y476467D01*
X361593Y476122D01*
X361628Y475754D01*
X361640Y475363D01*
X361630Y474998D01*
X361598Y474651D01*
X361545Y474324D01*
X361471Y474016D01*
X361376Y473726D01*
X361260Y473455D01*
X361123Y473204D01*
X360964Y472971D01*
X360785Y472759D01*
X360586Y472570D01*
X360366Y472403D01*
X360126Y472259D01*
X359866Y472138D01*
X359586Y472039D01*
X359285Y471963D01*
X358965Y471910D01*
G37*
G36*
X361500Y411397D02*
X351632Y411397D01*
X351632Y416040D01*
X351643Y416445D01*
X351678Y416826D01*
X351737Y417183D01*
X351818Y417517D01*
X351923Y417827D01*
X352051Y418113D01*
X352203Y418375D01*
X352378Y418614D01*
X352573Y418827D01*
X352787Y419011D01*
X353019Y419167D01*
X353270Y419294D01*
X353538Y419393D01*
X353825Y419464D01*
X354131Y419507D01*
X354454Y419521D01*
X354724Y419511D01*
X354982Y419481D01*
X355230Y419431D01*
X355466Y419361D01*
X355692Y419271D01*
X355907Y419161D01*
X356110Y419030D01*
X356303Y418880D01*
X356482Y418712D01*
X356643Y418529D01*
X356787Y418331D01*
X356840Y418242D01*
X356914Y418118D01*
X357024Y417889D01*
X357116Y417645D01*
X357191Y417386D01*
X357249Y417112D01*
X359058Y418304D01*
X361500Y419913D01*
X361500Y418372D01*
X357403Y415809D01*
X357403Y412734D01*
X361500Y412734D01*
X361500Y411397D01*
G37*
%LPC*%
G36*
X356345Y412734D02*
X356345Y415963D01*
X356338Y416220D01*
X356314Y416462D01*
X356276Y416689D01*
X356222Y416901D01*
X356152Y417098D01*
X356068Y417280D01*
X355967Y417447D01*
X355851Y417598D01*
X355722Y417734D01*
X355580Y417851D01*
X355426Y417951D01*
X355259Y418032D01*
X355080Y418095D01*
X354888Y418140D01*
X354684Y418167D01*
X354468Y418176D01*
X354259Y418167D01*
X354063Y418140D01*
X353880Y418094D01*
X353709Y418030D01*
X353551Y417948D01*
X353407Y417847D01*
X353274Y417729D01*
X353155Y417591D01*
X353049Y417437D01*
X352957Y417267D01*
X352880Y417080D01*
X352816Y416878D01*
X352767Y416659D01*
X352732Y416425D01*
X352710Y416174D01*
X352703Y415907D01*
X352703Y412734D01*
X356345Y412734D01*
G37*
%LPD*%
G36*
X359266Y420893D02*
X358285Y420893D01*
X351632Y425410D01*
X351632Y426734D01*
X358271Y426734D01*
X358271Y428121D01*
X359266Y428121D01*
X359266Y426734D01*
X361500Y426734D01*
X361500Y425543D01*
X359266Y425543D01*
X359266Y420893D01*
G37*
%LPC*%
G36*
X358271Y422056D02*
X358271Y425543D01*
X353053Y425543D01*
X353425Y425347D01*
X353887Y425074D01*
X357613Y422546D01*
X358131Y422168D01*
X358271Y422056D01*
G37*
%LPD*%
G36*
X361500Y360597D02*
X351632Y360597D01*
X351632Y365240D01*
X351643Y365645D01*
X351678Y366026D01*
X351737Y366383D01*
X351818Y366717D01*
X351923Y367027D01*
X352051Y367313D01*
X352203Y367575D01*
X352378Y367814D01*
X352573Y368027D01*
X352787Y368211D01*
X353019Y368367D01*
X353270Y368494D01*
X353538Y368593D01*
X353825Y368664D01*
X354131Y368707D01*
X354454Y368721D01*
X354724Y368711D01*
X354982Y368681D01*
X355230Y368631D01*
X355466Y368561D01*
X355692Y368471D01*
X355907Y368361D01*
X356110Y368230D01*
X356303Y368080D01*
X356482Y367912D01*
X356643Y367729D01*
X356787Y367531D01*
X356840Y367442D01*
X356914Y367318D01*
X357024Y367089D01*
X357116Y366845D01*
X357191Y366586D01*
X357249Y366312D01*
X359058Y367504D01*
X361500Y369113D01*
X361500Y367572D01*
X357403Y365009D01*
X357403Y361934D01*
X361500Y361934D01*
X361500Y360597D01*
G37*
%LPC*%
G36*
X356345Y361934D02*
X356345Y365163D01*
X356338Y365420D01*
X356314Y365662D01*
X356276Y365889D01*
X356222Y366101D01*
X356152Y366298D01*
X356068Y366480D01*
X355967Y366647D01*
X355851Y366798D01*
X355722Y366934D01*
X355580Y367051D01*
X355426Y367151D01*
X355259Y367232D01*
X355080Y367295D01*
X354888Y367340D01*
X354684Y367367D01*
X354468Y367376D01*
X354259Y367367D01*
X354063Y367340D01*
X353880Y367294D01*
X353709Y367230D01*
X353551Y367148D01*
X353407Y367047D01*
X353274Y366929D01*
X353155Y366791D01*
X353049Y366637D01*
X352957Y366467D01*
X352880Y366280D01*
X352816Y366078D01*
X352767Y365859D01*
X352732Y365625D01*
X352710Y365374D01*
X352703Y365107D01*
X352703Y361934D01*
X356345Y361934D01*
G37*
%LPD*%
G36*
X359294Y370338D02*
X359147Y371613D01*
X359490Y371732D01*
X359787Y371891D01*
X360039Y372088D01*
X360245Y372325D01*
X360405Y372601D01*
X360519Y372917D01*
X360588Y373271D01*
X360611Y373665D01*
X360601Y373912D01*
X360572Y374145D01*
X360524Y374364D01*
X360457Y374570D01*
X360371Y374762D01*
X360266Y374940D01*
X360141Y375104D01*
X359998Y375255D01*
X359837Y375389D01*
X359663Y375506D01*
X359474Y375605D01*
X359270Y375685D01*
X359052Y375748D01*
X358820Y375793D01*
X358574Y375820D01*
X358313Y375829D01*
X358086Y375820D01*
X357870Y375793D01*
X357665Y375748D01*
X357471Y375685D01*
X357288Y375603D01*
X357117Y375504D01*
X356957Y375387D01*
X356807Y375251D01*
X356673Y375100D01*
X356556Y374937D01*
X356458Y374761D01*
X356377Y374573D01*
X356314Y374372D01*
X356269Y374158D01*
X356242Y373932D01*
X356233Y373693D01*
X356243Y373442D01*
X356273Y373199D01*
X356324Y372965D01*
X356394Y372740D01*
X356489Y372520D01*
X356611Y372299D01*
X356762Y372079D01*
X356941Y371858D01*
X356941Y370625D01*
X351632Y370954D01*
X351632Y376564D01*
X352703Y376564D01*
X352703Y372103D01*
X355834Y371914D01*
X355686Y372125D01*
X355558Y372349D01*
X355450Y372585D01*
X355361Y372833D01*
X355292Y373094D01*
X355243Y373368D01*
X355213Y373654D01*
X355204Y373952D01*
X355217Y374307D01*
X355257Y374643D01*
X355324Y374961D01*
X355417Y375261D01*
X355537Y375542D01*
X355684Y375804D01*
X355858Y376048D01*
X356058Y376274D01*
X356280Y376476D01*
X356518Y376652D01*
X356772Y376801D01*
X357042Y376922D01*
X357329Y377017D01*
X357631Y377085D01*
X357950Y377125D01*
X358285Y377139D01*
X358665Y377124D01*
X359025Y377081D01*
X359363Y377008D01*
X359681Y376907D01*
X359978Y376776D01*
X360254Y376617D01*
X360509Y376428D01*
X360744Y376211D01*
X360954Y375968D01*
X361136Y375702D01*
X361290Y375414D01*
X361416Y375103D01*
X361514Y374770D01*
X361584Y374415D01*
X361626Y374037D01*
X361640Y373637D01*
X361631Y373300D01*
X361602Y372980D01*
X361555Y372677D01*
X361490Y372390D01*
X361405Y372120D01*
X361301Y371867D01*
X361179Y371630D01*
X361038Y371410D01*
X360879Y371208D01*
X360703Y371025D01*
X360510Y370862D01*
X360301Y370718D01*
X360074Y370594D01*
X359831Y370489D01*
X359571Y370404D01*
X359294Y370338D01*
G37*
G36*
X361500Y309797D02*
X351632Y309797D01*
X351632Y314440D01*
X351643Y314845D01*
X351678Y315226D01*
X351737Y315583D01*
X351818Y315917D01*
X351923Y316227D01*
X352051Y316513D01*
X352203Y316775D01*
X352378Y317014D01*
X352573Y317227D01*
X352787Y317411D01*
X353019Y317567D01*
X353270Y317694D01*
X353538Y317793D01*
X353825Y317864D01*
X354131Y317907D01*
X354454Y317921D01*
X354724Y317911D01*
X354982Y317881D01*
X355230Y317831D01*
X355466Y317761D01*
X355692Y317671D01*
X355907Y317561D01*
X356110Y317430D01*
X356303Y317280D01*
X356482Y317112D01*
X356643Y316929D01*
X356787Y316731D01*
X356840Y316642D01*
X356914Y316518D01*
X357024Y316289D01*
X357116Y316045D01*
X357191Y315786D01*
X357249Y315512D01*
X359058Y316704D01*
X361500Y318313D01*
X361500Y316772D01*
X357403Y314209D01*
X357403Y311134D01*
X361500Y311134D01*
X361500Y309797D01*
G37*
%LPC*%
G36*
X356345Y311134D02*
X356345Y314363D01*
X356338Y314620D01*
X356314Y314862D01*
X356276Y315089D01*
X356222Y315301D01*
X356152Y315498D01*
X356068Y315680D01*
X355967Y315847D01*
X355851Y315998D01*
X355722Y316134D01*
X355580Y316251D01*
X355426Y316351D01*
X355259Y316432D01*
X355080Y316495D01*
X354888Y316540D01*
X354684Y316567D01*
X354468Y316576D01*
X354259Y316567D01*
X354063Y316540D01*
X353880Y316494D01*
X353709Y316430D01*
X353551Y316348D01*
X353407Y316247D01*
X353274Y316129D01*
X353155Y315991D01*
X353049Y315837D01*
X352957Y315667D01*
X352880Y315480D01*
X352816Y315278D01*
X352767Y315059D01*
X352732Y314825D01*
X352710Y314574D01*
X352703Y314307D01*
X352703Y311134D01*
X356345Y311134D01*
G37*
%LPD*%
G36*
X356793Y319692D02*
X356171Y319706D01*
X355586Y319749D01*
X355038Y319821D01*
X354528Y319922D01*
X354054Y320051D01*
X353618Y320208D01*
X353219Y320395D01*
X352857Y320610D01*
X352536Y320851D01*
X352257Y321117D01*
X352021Y321407D01*
X351828Y321721D01*
X351678Y322060D01*
X351570Y322423D01*
X351506Y322810D01*
X351485Y323222D01*
X351492Y323495D01*
X351516Y323755D01*
X351555Y324002D01*
X351610Y324236D01*
X351681Y324457D01*
X351767Y324665D01*
X351869Y324861D01*
X351987Y325043D01*
X352121Y325213D01*
X352270Y325369D01*
X352435Y325513D01*
X352615Y325644D01*
X352812Y325761D01*
X353024Y325866D01*
X353251Y325958D01*
X353495Y326038D01*
X353712Y324833D01*
X353429Y324726D01*
X353185Y324592D01*
X352978Y324430D01*
X352808Y324241D01*
X352677Y324024D01*
X352582Y323780D01*
X352526Y323508D01*
X352507Y323208D01*
X352523Y322946D01*
X352570Y322699D01*
X352649Y322468D01*
X352758Y322251D01*
X352900Y322050D01*
X353073Y321864D01*
X353277Y321693D01*
X353512Y321538D01*
X353778Y321399D01*
X354071Y321279D01*
X354393Y321177D01*
X354742Y321094D01*
X355120Y321029D01*
X355526Y320983D01*
X355960Y320955D01*
X356422Y320946D01*
X356123Y321135D01*
X355861Y321359D01*
X355638Y321618D01*
X355452Y321912D01*
X355307Y322235D01*
X355203Y322581D01*
X355140Y322950D01*
X355120Y323341D01*
X355133Y323674D01*
X355173Y323989D01*
X355240Y324286D01*
X355333Y324566D01*
X355453Y324828D01*
X355600Y325073D01*
X355774Y325299D01*
X355974Y325509D01*
X356197Y325697D01*
X356438Y325860D01*
X356698Y325997D01*
X356976Y326110D01*
X357272Y326198D01*
X357587Y326261D01*
X357920Y326298D01*
X358271Y326311D01*
X358651Y326297D01*
X359011Y326258D01*
X359350Y326192D01*
X359669Y326099D01*
X359966Y325980D01*
X360244Y325834D01*
X360500Y325662D01*
X360737Y325463D01*
X360948Y325241D01*
X361132Y324999D01*
X361287Y324737D01*
X361414Y324455D01*
X361513Y324152D01*
X361584Y323830D01*
X361626Y323487D01*
X361640Y323124D01*
X361621Y322720D01*
X361563Y322340D01*
X361466Y321984D01*
X361330Y321653D01*
X361156Y321347D01*
X360943Y321065D01*
X360691Y320807D01*
X360400Y320575D01*
X360073Y320368D01*
X359710Y320189D01*
X359312Y320037D01*
X358879Y319913D01*
X358410Y319816D01*
X357907Y319747D01*
X357368Y319706D01*
X356793Y319692D01*
G37*
%LPC*%
G36*
X358026Y321072D02*
X358305Y321081D01*
X358571Y321107D01*
X358824Y321151D01*
X359064Y321213D01*
X359292Y321292D01*
X359506Y321389D01*
X359708Y321504D01*
X359896Y321636D01*
X360067Y321782D01*
X360215Y321938D01*
X360340Y322103D01*
X360442Y322279D01*
X360522Y322465D01*
X360579Y322661D01*
X360613Y322866D01*
X360625Y323082D01*
X360615Y323303D01*
X360586Y323513D01*
X360538Y323710D01*
X360471Y323894D01*
X360385Y324067D01*
X360280Y324227D01*
X360155Y324375D01*
X360012Y324511D01*
X359851Y324632D01*
X359677Y324737D01*
X359488Y324827D01*
X359284Y324899D01*
X359066Y324956D01*
X358834Y324997D01*
X358588Y325021D01*
X358327Y325029D01*
X358067Y325021D01*
X357822Y324996D01*
X357593Y324955D01*
X357378Y324898D01*
X357179Y324824D01*
X356996Y324734D01*
X356827Y324627D01*
X356674Y324504D01*
X356538Y324366D01*
X356420Y324215D01*
X356320Y324052D01*
X356238Y323875D01*
X356175Y323686D01*
X356129Y323483D01*
X356102Y323268D01*
X356093Y323040D01*
X356101Y322825D01*
X356125Y322620D01*
X356166Y322426D01*
X356222Y322242D01*
X356294Y322070D01*
X356383Y321907D01*
X356487Y321756D01*
X356608Y321615D01*
X356743Y321487D01*
X356890Y321377D01*
X357049Y321284D01*
X357220Y321208D01*
X357403Y321148D01*
X357599Y321106D01*
X357806Y321080D01*
X358026Y321072D01*
G37*
%LPD*%
G36*
X361500Y258997D02*
X351632Y258997D01*
X351632Y263640D01*
X351643Y264045D01*
X351678Y264426D01*
X351737Y264783D01*
X351818Y265117D01*
X351923Y265427D01*
X352051Y265713D01*
X352203Y265975D01*
X352378Y266214D01*
X352573Y266427D01*
X352787Y266611D01*
X353019Y266767D01*
X353270Y266894D01*
X353538Y266993D01*
X353825Y267064D01*
X354131Y267107D01*
X354454Y267121D01*
X354724Y267111D01*
X354982Y267081D01*
X355230Y267031D01*
X355466Y266961D01*
X355692Y266871D01*
X355907Y266761D01*
X356110Y266630D01*
X356303Y266480D01*
X356482Y266312D01*
X356643Y266129D01*
X356787Y265931D01*
X356840Y265842D01*
X356914Y265718D01*
X357024Y265489D01*
X357116Y265245D01*
X357191Y264986D01*
X357249Y264712D01*
X359058Y265904D01*
X361500Y267513D01*
X361500Y265972D01*
X357403Y263409D01*
X357403Y260334D01*
X361500Y260334D01*
X361500Y258997D01*
G37*
%LPC*%
G36*
X356345Y260334D02*
X356345Y263563D01*
X356338Y263820D01*
X356314Y264062D01*
X356276Y264289D01*
X356222Y264501D01*
X356152Y264698D01*
X356068Y264880D01*
X355967Y265047D01*
X355851Y265198D01*
X355722Y265334D01*
X355580Y265451D01*
X355426Y265551D01*
X355259Y265632D01*
X355080Y265695D01*
X354888Y265740D01*
X354684Y265767D01*
X354468Y265776D01*
X354259Y265767D01*
X354063Y265740D01*
X353880Y265694D01*
X353709Y265630D01*
X353551Y265548D01*
X353407Y265447D01*
X353274Y265329D01*
X353155Y265191D01*
X353049Y265037D01*
X352957Y264867D01*
X352880Y264680D01*
X352816Y264478D01*
X352767Y264259D01*
X352732Y264025D01*
X352710Y263774D01*
X352703Y263507D01*
X352703Y260334D01*
X356345Y260334D01*
G37*
%LPD*%
G36*
X352703Y268899D02*
X351632Y268899D01*
X351632Y275420D01*
X352654Y275420D01*
X353747Y274719D01*
X354715Y274129D01*
X355558Y273651D01*
X356275Y273284D01*
X356928Y272991D01*
X357576Y272738D01*
X358220Y272524D01*
X358860Y272349D01*
X359503Y272212D01*
X360157Y272115D01*
X360823Y272056D01*
X361500Y272037D01*
X361500Y270720D01*
X361024Y270733D01*
X360542Y270770D01*
X360054Y270833D01*
X359559Y270921D01*
X359058Y271033D01*
X358551Y271171D01*
X358038Y271334D01*
X357518Y271522D01*
X356986Y271739D01*
X356433Y271990D01*
X355861Y272275D01*
X355269Y272593D01*
X354657Y272944D01*
X354026Y273330D01*
X353374Y273749D01*
X352703Y274201D01*
X352703Y268899D01*
G37*
G36*
X358762Y217987D02*
X358525Y217996D01*
X358298Y218022D01*
X358080Y218065D01*
X357872Y218125D01*
X357674Y218203D01*
X357485Y218298D01*
X357306Y218411D01*
X357137Y218540D01*
X356980Y218684D01*
X356840Y218836D01*
X356716Y218999D01*
X356608Y219171D01*
X356516Y219352D01*
X356441Y219544D01*
X356381Y219745D01*
X356338Y219955D01*
X356310Y219955D01*
X356256Y219759D01*
X356188Y219574D01*
X356106Y219399D01*
X356011Y219235D01*
X355901Y219081D01*
X355778Y218938D01*
X355641Y218806D01*
X355491Y218684D01*
X355162Y218480D01*
X354987Y218400D01*
X354806Y218335D01*
X354618Y218284D01*
X354423Y218247D01*
X354221Y218225D01*
X354013Y218218D01*
X353738Y218231D01*
X353476Y218271D01*
X353227Y218337D01*
X352992Y218429D01*
X352770Y218548D01*
X352562Y218693D01*
X352367Y218864D01*
X352185Y219062D01*
X352021Y219282D01*
X351879Y219520D01*
X351758Y219776D01*
X351660Y220051D01*
X351583Y220343D01*
X351528Y220653D01*
X351496Y220981D01*
X351485Y221328D01*
X351495Y221683D01*
X351528Y222018D01*
X351581Y222334D01*
X351656Y222631D01*
X351753Y222909D01*
X351871Y223168D01*
X352010Y223408D01*
X352171Y223629D01*
X352350Y223826D01*
X352544Y223998D01*
X352754Y224143D01*
X352978Y224262D01*
X353218Y224354D01*
X353472Y224420D01*
X353742Y224459D01*
X354027Y224473D01*
X354235Y224465D01*
X354437Y224443D01*
X354632Y224407D01*
X354820Y224355D01*
X355002Y224289D01*
X355176Y224209D01*
X355505Y224003D01*
X355655Y223881D01*
X355791Y223747D01*
X355803Y223733D01*
X355912Y223603D01*
X356018Y223448D01*
X356109Y223283D01*
X356186Y223106D01*
X356249Y222919D01*
X356296Y222722D01*
X356324Y222722D01*
X356370Y222951D01*
X356432Y223168D01*
X356509Y223372D01*
X356602Y223562D01*
X356710Y223739D01*
X356833Y223904D01*
X356972Y224055D01*
X357096Y224166D01*
X357126Y224192D01*
X357293Y224316D01*
X357470Y224422D01*
X357658Y224513D01*
X357855Y224586D01*
X358063Y224644D01*
X358281Y224685D01*
X358509Y224710D01*
X358748Y224718D01*
X359080Y224704D01*
X359393Y224663D01*
X359687Y224596D01*
X359963Y224501D01*
X360219Y224378D01*
X360457Y224229D01*
X360676Y224053D01*
X360877Y223849D01*
X361056Y223620D01*
X361211Y223368D01*
X361342Y223092D01*
X361449Y222792D01*
X361533Y222468D01*
X361592Y222121D01*
X361628Y221750D01*
X361640Y221356D01*
X361628Y220971D01*
X361593Y220608D01*
X361535Y220266D01*
X361453Y219946D01*
X361347Y219647D01*
X361219Y219370D01*
X361066Y219114D01*
X360891Y218880D01*
X360694Y218671D01*
X360477Y218489D01*
X360240Y218336D01*
X359984Y218210D01*
X359708Y218113D01*
X359412Y218043D01*
X359097Y218001D01*
X358762Y217987D01*
G37*
%LPC*%
G36*
X358656Y219290D02*
X358903Y219298D01*
X359134Y219322D01*
X359349Y219363D01*
X359548Y219420D01*
X359731Y219493D01*
X359898Y219582D01*
X360050Y219688D01*
X360185Y219810D01*
X360304Y219948D01*
X360408Y220102D01*
X360496Y220273D01*
X360567Y220460D01*
X360623Y220663D01*
X360663Y220882D01*
X360687Y221118D01*
X360695Y221370D01*
X360687Y221619D01*
X360664Y221852D01*
X360625Y222068D01*
X360571Y222268D01*
X360502Y222452D01*
X360417Y222619D01*
X360317Y222769D01*
X360201Y222904D01*
X360068Y223022D01*
X359917Y223124D01*
X359748Y223211D01*
X359561Y223282D01*
X359355Y223337D01*
X359131Y223376D01*
X358889Y223400D01*
X358628Y223408D01*
X358406Y223399D01*
X358198Y223374D01*
X358004Y223331D01*
X357824Y223271D01*
X357658Y223195D01*
X357506Y223101D01*
X357369Y222990D01*
X357245Y222862D01*
X357136Y222718D01*
X357041Y222561D01*
X356961Y222390D01*
X356896Y222205D01*
X356845Y222006D01*
X356809Y221794D01*
X356787Y221568D01*
X356779Y221328D01*
X356787Y221095D01*
X356811Y220874D01*
X356850Y220667D01*
X356905Y220473D01*
X356975Y220293D01*
X357061Y220125D01*
X357163Y219970D01*
X357280Y219829D01*
X357411Y219703D01*
X357554Y219593D01*
X357709Y219500D01*
X357875Y219425D01*
X358053Y219366D01*
X358242Y219323D01*
X358443Y219298D01*
X358656Y219290D01*
G37*
G36*
X354097Y219507D02*
X354303Y219514D01*
X354496Y219537D01*
X354676Y219574D01*
X354844Y219627D01*
X354999Y219694D01*
X355142Y219777D01*
X355272Y219874D01*
X355389Y219987D01*
X355493Y220113D01*
X355584Y220251D01*
X355660Y220402D01*
X355723Y220565D01*
X355771Y220741D01*
X355806Y220929D01*
X355827Y221129D01*
X355834Y221342D01*
X355828Y221558D01*
X355808Y221760D01*
X355776Y221949D01*
X355732Y222125D01*
X355674Y222288D01*
X355604Y222438D01*
X355520Y222574D01*
X355424Y222697D01*
X355314Y222806D01*
X355188Y222901D01*
X355046Y222981D01*
X354888Y223046D01*
X354714Y223097D01*
X354524Y223134D01*
X354318Y223156D01*
X354097Y223163D01*
X353894Y223156D01*
X353705Y223134D01*
X353528Y223098D01*
X353365Y223048D01*
X353214Y222984D01*
X353077Y222905D01*
X352953Y222812D01*
X352842Y222704D01*
X352744Y222582D01*
X352659Y222446D01*
X352587Y222296D01*
X352528Y222131D01*
X352482Y221952D01*
X352449Y221758D01*
X352430Y221550D01*
X352423Y221328D01*
X352430Y221112D01*
X352449Y220910D01*
X352482Y220720D01*
X352528Y220544D01*
X352587Y220382D01*
X352660Y220232D01*
X352745Y220096D01*
X352843Y219973D01*
X352955Y219863D01*
X353079Y219769D01*
X353217Y219689D01*
X353367Y219623D01*
X353530Y219572D01*
X353706Y219536D01*
X353895Y219514D01*
X354097Y219507D01*
G37*
%LPD*%
G36*
X361500Y208197D02*
X351632Y208197D01*
X351632Y212840D01*
X351643Y213245D01*
X351678Y213626D01*
X351737Y213983D01*
X351818Y214317D01*
X351923Y214627D01*
X352051Y214913D01*
X352203Y215175D01*
X352378Y215414D01*
X352573Y215627D01*
X352787Y215811D01*
X353019Y215967D01*
X353270Y216094D01*
X353538Y216193D01*
X353825Y216264D01*
X354131Y216307D01*
X354454Y216321D01*
X354724Y216311D01*
X354982Y216281D01*
X355230Y216231D01*
X355466Y216161D01*
X355692Y216071D01*
X355907Y215961D01*
X356110Y215830D01*
X356303Y215680D01*
X356482Y215512D01*
X356643Y215329D01*
X356787Y215131D01*
X356840Y215042D01*
X356914Y214918D01*
X357024Y214689D01*
X357116Y214445D01*
X357191Y214186D01*
X357249Y213912D01*
X359058Y215104D01*
X361500Y216713D01*
X361500Y215172D01*
X357403Y212609D01*
X357403Y209534D01*
X361500Y209534D01*
X361500Y208197D01*
G37*
%LPC*%
G36*
X356345Y209534D02*
X356345Y212763D01*
X356338Y213020D01*
X356314Y213262D01*
X356276Y213489D01*
X356222Y213701D01*
X356152Y213898D01*
X356068Y214080D01*
X355967Y214247D01*
X355851Y214398D01*
X355722Y214534D01*
X355580Y214651D01*
X355426Y214751D01*
X355259Y214832D01*
X355080Y214895D01*
X354888Y214940D01*
X354684Y214967D01*
X354468Y214976D01*
X354259Y214967D01*
X354063Y214940D01*
X353880Y214894D01*
X353709Y214830D01*
X353551Y214748D01*
X353407Y214647D01*
X353274Y214529D01*
X353155Y214391D01*
X353049Y214237D01*
X352957Y214067D01*
X352880Y213880D01*
X352816Y213678D01*
X352767Y213459D01*
X352732Y213225D01*
X352710Y212974D01*
X352703Y212707D01*
X352703Y209534D01*
X356345Y209534D01*
G37*
%LPD*%
G36*
X361500Y157397D02*
X351632Y157397D01*
X351632Y162040D01*
X351643Y162445D01*
X351678Y162826D01*
X351737Y163183D01*
X351818Y163517D01*
X351923Y163827D01*
X352051Y164113D01*
X352203Y164375D01*
X352378Y164614D01*
X352573Y164827D01*
X352787Y165011D01*
X353019Y165167D01*
X353270Y165294D01*
X353538Y165393D01*
X353825Y165464D01*
X354131Y165507D01*
X354454Y165521D01*
X354724Y165511D01*
X354982Y165481D01*
X355230Y165431D01*
X355466Y165361D01*
X355692Y165271D01*
X355907Y165161D01*
X356110Y165030D01*
X356303Y164880D01*
X356482Y164712D01*
X356643Y164529D01*
X356787Y164331D01*
X356840Y164242D01*
X356914Y164118D01*
X357024Y163889D01*
X357116Y163645D01*
X357191Y163386D01*
X357249Y163112D01*
X359058Y164304D01*
X361500Y165913D01*
X361500Y164372D01*
X357403Y161809D01*
X357403Y158734D01*
X361500Y158734D01*
X361500Y157397D01*
G37*
%LPC*%
G36*
X356345Y158734D02*
X356345Y161963D01*
X356338Y162220D01*
X356314Y162462D01*
X356276Y162689D01*
X356222Y162901D01*
X356152Y163098D01*
X356068Y163280D01*
X355967Y163447D01*
X355851Y163598D01*
X355722Y163734D01*
X355580Y163851D01*
X355426Y163951D01*
X355259Y164032D01*
X355080Y164095D01*
X354888Y164140D01*
X354684Y164167D01*
X354468Y164176D01*
X354259Y164167D01*
X354063Y164140D01*
X353880Y164094D01*
X353709Y164030D01*
X353551Y163948D01*
X353407Y163847D01*
X353274Y163729D01*
X353155Y163591D01*
X353049Y163437D01*
X352957Y163267D01*
X352880Y163080D01*
X352816Y162878D01*
X352767Y162659D01*
X352732Y162425D01*
X352710Y162174D01*
X352703Y161907D01*
X352703Y158734D01*
X356345Y158734D01*
G37*
%LPD*%
G36*
X354804Y167236D02*
X354428Y167250D01*
X354072Y167290D01*
X353737Y167358D01*
X353422Y167453D01*
X353128Y167575D01*
X352855Y167725D01*
X352602Y167901D01*
X352371Y168105D01*
X352163Y168332D01*
X351983Y168581D01*
X351831Y168851D01*
X351706Y169143D01*
X351609Y169456D01*
X351540Y169789D01*
X351498Y170145D01*
X351485Y170521D01*
X351504Y170920D01*
X351561Y171294D01*
X351656Y171643D01*
X351789Y171967D01*
X351961Y172266D01*
X352170Y172541D01*
X352418Y172790D01*
X352703Y173014D01*
X353027Y173213D01*
X353389Y173385D01*
X353790Y173531D01*
X354228Y173650D01*
X354705Y173743D01*
X355221Y173809D01*
X355774Y173848D01*
X356366Y173862D01*
X356983Y173847D01*
X357564Y173804D01*
X358108Y173731D01*
X358614Y173630D01*
X359085Y173499D01*
X359518Y173340D01*
X359915Y173151D01*
X360274Y172934D01*
X360594Y172689D01*
X360872Y172420D01*
X361107Y172127D01*
X361299Y171809D01*
X361448Y171466D01*
X361555Y171098D01*
X361619Y170706D01*
X361640Y170290D01*
X361632Y170008D01*
X361610Y169741D01*
X361572Y169488D01*
X361518Y169249D01*
X361450Y169024D01*
X361366Y168814D01*
X361267Y168619D01*
X361153Y168437D01*
X361022Y168269D01*
X360873Y168114D01*
X360704Y167970D01*
X360517Y167839D01*
X360311Y167721D01*
X360086Y167615D01*
X359843Y167521D01*
X359581Y167439D01*
X359392Y168644D01*
X359681Y168753D01*
X359931Y168890D01*
X360143Y169056D01*
X360316Y169250D01*
X360451Y169472D01*
X360548Y169723D01*
X360605Y170003D01*
X360625Y170311D01*
X360609Y170575D01*
X360562Y170823D01*
X360483Y171056D01*
X360372Y171274D01*
X360231Y171476D01*
X360057Y171663D01*
X359852Y171835D01*
X359616Y171992D01*
X359350Y172132D01*
X359058Y172254D01*
X358738Y172358D01*
X358392Y172445D01*
X358019Y172514D01*
X357619Y172566D01*
X357192Y172599D01*
X356737Y172615D01*
X357037Y172450D01*
X357306Y172235D01*
X357543Y171970D01*
X357750Y171656D01*
X357917Y171308D01*
X358036Y170943D01*
X358107Y170562D01*
X358131Y170164D01*
X358117Y169839D01*
X358074Y169532D01*
X358003Y169241D01*
X357904Y168966D01*
X357776Y168708D01*
X357619Y168467D01*
X357434Y168242D01*
X357221Y168035D01*
X356984Y167847D01*
X356728Y167685D01*
X356454Y167548D01*
X356161Y167436D01*
X355850Y167348D01*
X355520Y167286D01*
X355172Y167249D01*
X354804Y167236D01*
G37*
%LPC*%
G36*
X354804Y168518D02*
X355067Y168526D01*
X355315Y168551D01*
X355550Y168592D01*
X355770Y168649D01*
X355976Y168723D01*
X356168Y168813D01*
X356346Y168920D01*
X356510Y169043D01*
X356657Y169180D01*
X356784Y169329D01*
X356892Y169489D01*
X356980Y169661D01*
X357049Y169845D01*
X357097Y170040D01*
X357127Y170247D01*
X357137Y170465D01*
X357121Y170733D01*
X357075Y170992D01*
X356997Y171241D01*
X356888Y171480D01*
X356751Y171703D01*
X356588Y171900D01*
X356399Y172072D01*
X356184Y172219D01*
X355949Y172337D01*
X355697Y172422D01*
X355430Y172472D01*
X355148Y172489D01*
X354857Y172480D01*
X354581Y172455D01*
X354320Y172412D01*
X354073Y172352D01*
X353841Y172276D01*
X353624Y172182D01*
X353421Y172071D01*
X353232Y171943D01*
X353062Y171800D01*
X352915Y171646D01*
X352790Y171481D01*
X352688Y171304D01*
X352609Y171115D01*
X352552Y170914D01*
X352518Y170702D01*
X352507Y170479D01*
X352517Y170257D01*
X352546Y170048D01*
X352594Y169850D01*
X352662Y169665D01*
X352749Y169491D01*
X352856Y169330D01*
X352982Y169180D01*
X353127Y169043D01*
X353289Y168920D01*
X353464Y168813D01*
X353653Y168723D01*
X353856Y168649D01*
X354073Y168592D01*
X354303Y168551D01*
X354547Y168526D01*
X354804Y168518D01*
G37*
%LPD*%
G36*
X706196Y399954D02*
X705969Y400997D01*
X706312Y401094D01*
X706609Y401234D01*
X706861Y401415D01*
X707067Y401638D01*
X707232Y401906D01*
X707357Y402221D01*
X707443Y402585D01*
X707463Y402760D01*
X707491Y402997D01*
X704448Y402997D01*
X704317Y402496D01*
X704192Y402079D01*
X704135Y401918D01*
X704074Y401746D01*
X703963Y401497D01*
X703852Y401300D01*
X703733Y401123D01*
X703605Y400965D01*
X703470Y400828D01*
X703328Y400710D01*
X703181Y400609D01*
X703029Y400526D01*
X702872Y400460D01*
X702704Y400410D01*
X702520Y400375D01*
X702321Y400354D01*
X702105Y400347D01*
X701874Y400357D01*
X701655Y400390D01*
X701450Y400444D01*
X701258Y400519D01*
X701078Y400616D01*
X700912Y400735D01*
X700758Y400875D01*
X700617Y401037D01*
X700491Y401218D01*
X700379Y401418D01*
X700282Y401636D01*
X700201Y401872D01*
X700135Y402126D01*
X700083Y402398D01*
X700047Y402688D01*
X700025Y402997D01*
X699222Y402997D01*
X699222Y403757D01*
X700025Y403757D01*
X700046Y404036D01*
X700078Y404298D01*
X700124Y404544D01*
X700183Y404774D01*
X700254Y404987D01*
X700338Y405184D01*
X700434Y405365D01*
X700544Y405530D01*
X700668Y405681D01*
X700808Y405820D01*
X700964Y405947D01*
X701136Y406064D01*
X701325Y406168D01*
X701530Y406261D01*
X701751Y406343D01*
X701988Y406413D01*
X702191Y405346D01*
X701918Y405269D01*
X701678Y405160D01*
X701469Y405020D01*
X701292Y404849D01*
X701147Y404640D01*
X701034Y404389D01*
X700952Y404095D01*
X700903Y403757D01*
X703632Y403757D01*
X703758Y404266D01*
X703879Y404696D01*
X703994Y405047D01*
X704105Y405318D01*
X704215Y405538D01*
X704333Y405733D01*
X704458Y405904D01*
X704589Y406051D01*
X704730Y406178D01*
X704884Y406289D01*
X705049Y406384D01*
X705227Y406462D01*
X705419Y406524D01*
X705627Y406568D01*
X705852Y406595D01*
X706092Y406603D01*
X706339Y406592D01*
X706573Y406557D01*
X706795Y406499D01*
X707004Y406418D01*
X707201Y406313D01*
X707386Y406186D01*
X707558Y406035D01*
X707717Y405861D01*
X707862Y405666D01*
X707990Y405451D01*
X708101Y405217D01*
X708194Y404964D01*
X708271Y404691D01*
X708330Y404399D01*
X708373Y404088D01*
X708398Y403757D01*
X709392Y403757D01*
X709392Y402997D01*
X708398Y402997D01*
X708377Y402678D01*
X708340Y402377D01*
X708287Y402093D01*
X708219Y401826D01*
X708136Y401577D01*
X708037Y401344D01*
X707923Y401128D01*
X707793Y400929D01*
X707647Y400748D01*
X707486Y400583D01*
X707310Y400436D01*
X707118Y400305D01*
X706911Y400192D01*
X706688Y400096D01*
X706450Y400016D01*
X706196Y399954D01*
G37*
%LPC*%
G36*
X707497Y403757D02*
X707465Y404035D01*
X707450Y404164D01*
X707366Y404522D01*
X707245Y404828D01*
X707086Y405085D01*
X706891Y405288D01*
X706781Y405367D01*
X706662Y405433D01*
X706536Y405483D01*
X706400Y405519D01*
X706256Y405541D01*
X706104Y405548D01*
X705914Y405538D01*
X705741Y405508D01*
X705586Y405459D01*
X705448Y405389D01*
X705325Y405300D01*
X705212Y405194D01*
X705111Y405070D01*
X705022Y404929D01*
X704934Y404743D01*
X704838Y404486D01*
X704626Y403757D01*
X707497Y403757D01*
G37*
G36*
X702093Y401402D02*
X702267Y401411D01*
X702427Y401440D01*
X702573Y401488D01*
X702706Y401555D01*
X702710Y401558D01*
X702827Y401641D01*
X702938Y401746D01*
X703038Y401870D01*
X703129Y402012D01*
X703215Y402187D01*
X703301Y402410D01*
X703473Y402997D01*
X700890Y402997D01*
X700928Y402623D01*
X700998Y402299D01*
X701100Y402025D01*
X701234Y401800D01*
X701400Y401626D01*
X701599Y401501D01*
X701830Y401427D01*
X701957Y401408D01*
X702093Y401402D01*
G37*
%LPD*%
G36*
X705380Y391726D02*
X699878Y391726D01*
X699878Y392897D01*
X705282Y392897D01*
X705569Y392907D01*
X705839Y392935D01*
X706090Y392982D01*
X706324Y393048D01*
X706539Y393132D01*
X706737Y393236D01*
X706917Y393358D01*
X707080Y393499D01*
X707223Y393657D01*
X707348Y393832D01*
X707453Y394024D01*
X707540Y394233D01*
X707607Y394458D01*
X707655Y394700D01*
X707683Y394959D01*
X707693Y395234D01*
X707683Y395518D01*
X707653Y395785D01*
X707604Y396036D01*
X707534Y396270D01*
X707445Y396489D01*
X707336Y396691D01*
X707207Y396877D01*
X707058Y397047D01*
X706890Y397199D01*
X706704Y397330D01*
X706500Y397441D01*
X706277Y397532D01*
X706036Y397603D01*
X705776Y397654D01*
X705499Y397684D01*
X705203Y397694D01*
X699878Y397694D01*
X699878Y398860D01*
X705270Y398860D01*
X705528Y398853D01*
X705776Y398832D01*
X706016Y398797D01*
X706247Y398748D01*
X706469Y398686D01*
X706681Y398609D01*
X706885Y398519D01*
X707080Y398415D01*
X707437Y398170D01*
X707750Y397878D01*
X708019Y397541D01*
X708242Y397157D01*
X708418Y396733D01*
X708487Y396507D01*
X708543Y396272D01*
X708587Y396028D01*
X708619Y395774D01*
X708637Y395512D01*
X708644Y395241D01*
X708638Y394979D01*
X708620Y394727D01*
X708547Y394247D01*
X708426Y393801D01*
X708257Y393388D01*
X708042Y393015D01*
X707783Y392686D01*
X707481Y392401D01*
X707135Y392161D01*
X706946Y392059D01*
X706749Y391971D01*
X706543Y391896D01*
X706328Y391835D01*
X706104Y391787D01*
X705872Y391753D01*
X705631Y391733D01*
X705380Y391726D01*
G37*
G36*
X708521Y407745D02*
X707583Y407745D01*
X707583Y409947D01*
X700933Y409947D01*
X702326Y407996D01*
X701283Y407996D01*
X699878Y410039D01*
X699878Y411057D01*
X707583Y411057D01*
X707583Y413161D01*
X708521Y413161D01*
X708521Y407745D01*
G37*
G36*
X433102Y208025D02*
X432730Y208033D01*
X432369Y208059D01*
X432020Y208102D01*
X431684Y208163D01*
X431359Y208240D01*
X431046Y208335D01*
X430746Y208447D01*
X430457Y208577D01*
X430183Y208722D01*
X429924Y208884D01*
X429681Y209061D01*
X429455Y209253D01*
X429244Y209461D01*
X429048Y209685D01*
X428869Y209924D01*
X428706Y210179D01*
X428560Y210448D01*
X428434Y210730D01*
X428327Y211024D01*
X428239Y211331D01*
X428171Y211651D01*
X428123Y211983D01*
X428094Y212327D01*
X428084Y212684D01*
X428084Y220541D01*
X429757Y220541D01*
X429757Y212825D01*
X429770Y212415D01*
X429810Y212030D01*
X429877Y211671D01*
X429971Y211338D01*
X430092Y211030D01*
X430240Y210747D01*
X430414Y210490D01*
X430615Y210258D01*
X430842Y210053D01*
X431092Y209875D01*
X431366Y209725D01*
X431664Y209601D01*
X431986Y209506D01*
X432331Y209437D01*
X432701Y209396D01*
X433094Y209382D01*
X433498Y209397D01*
X433880Y209439D01*
X434238Y209510D01*
X434573Y209609D01*
X434885Y209737D01*
X435174Y209892D01*
X435439Y210076D01*
X435682Y210289D01*
X435898Y210529D01*
X436086Y210794D01*
X436245Y211086D01*
X436375Y211405D01*
X436476Y211749D01*
X436548Y212119D01*
X436591Y212516D01*
X436606Y212938D01*
X436606Y220541D01*
X438270Y220541D01*
X438270Y212842D01*
X438260Y212474D01*
X438230Y212119D01*
X438181Y211777D01*
X438111Y211447D01*
X438022Y211131D01*
X437913Y210827D01*
X437784Y210536D01*
X437635Y210258D01*
X437468Y209995D01*
X437285Y209747D01*
X437085Y209516D01*
X436869Y209300D01*
X436636Y209101D01*
X436387Y208917D01*
X436121Y208750D01*
X435840Y208599D01*
X435543Y208464D01*
X435233Y208348D01*
X434911Y208249D01*
X434575Y208168D01*
X434226Y208106D01*
X433865Y208061D01*
X433490Y208034D01*
X433102Y208025D01*
G37*
G36*
X448711Y208200D02*
X440540Y208200D01*
X440540Y209312D01*
X440775Y209810D01*
X441036Y210277D01*
X441321Y210714D01*
X441630Y211121D01*
X441956Y211504D01*
X442290Y211868D01*
X442633Y212213D01*
X442983Y212540D01*
X443689Y213152D01*
X444389Y213718D01*
X445051Y214261D01*
X445646Y214804D01*
X445913Y215079D01*
X446153Y215360D01*
X446366Y215648D01*
X446552Y215943D01*
X446704Y216250D01*
X446812Y216578D01*
X446877Y216925D01*
X446898Y217291D01*
X446889Y217538D01*
X446861Y217771D01*
X446815Y217989D01*
X446749Y218193D01*
X446666Y218383D01*
X446563Y218559D01*
X446442Y218721D01*
X446303Y218868D01*
X446147Y218999D01*
X445976Y219113D01*
X445791Y219209D01*
X445591Y219288D01*
X445377Y219350D01*
X445148Y219393D01*
X444905Y219420D01*
X444647Y219428D01*
X444401Y219420D01*
X444166Y219394D01*
X443942Y219351D01*
X443729Y219292D01*
X443527Y219215D01*
X443336Y219121D01*
X443156Y219009D01*
X442988Y218881D01*
X442833Y218737D01*
X442695Y218580D01*
X442574Y218408D01*
X442470Y218223D01*
X442382Y218024D01*
X442312Y217811D01*
X442258Y217584D01*
X442221Y217344D01*
X440610Y217493D01*
X440668Y217853D01*
X440754Y218195D01*
X440869Y218518D01*
X441011Y218822D01*
X441183Y219107D01*
X441382Y219373D01*
X441610Y219620D01*
X441867Y219849D01*
X442147Y220054D01*
X442446Y220232D01*
X442765Y220383D01*
X443103Y220506D01*
X443460Y220602D01*
X443836Y220670D01*
X444232Y220711D01*
X444647Y220725D01*
X445100Y220711D01*
X445526Y220670D01*
X445925Y220601D01*
X446297Y220505D01*
X446642Y220381D01*
X446960Y220230D01*
X447252Y220051D01*
X447516Y219844D01*
X447751Y219613D01*
X447955Y219358D01*
X448127Y219080D01*
X448268Y218779D01*
X448378Y218455D01*
X448456Y218108D01*
X448503Y217737D01*
X448519Y217344D01*
X448498Y216985D01*
X448437Y216628D01*
X448334Y216272D01*
X448190Y215916D01*
X448006Y215562D01*
X447782Y215207D01*
X447518Y214852D01*
X447214Y214497D01*
X446816Y214094D01*
X446270Y213593D01*
X445576Y212995D01*
X444735Y212299D01*
X444257Y211897D01*
X443831Y211516D01*
X443456Y211155D01*
X443132Y210814D01*
X442855Y210487D01*
X442620Y210165D01*
X442426Y209850D01*
X442274Y209540D01*
X448711Y209540D01*
X448711Y208200D01*
G37*
D10*
X312600Y519600D03*
D11*
X328380Y534840D02*
X328382Y534911D01*
X328388Y534982D01*
X328398Y535053D01*
X328412Y535123D01*
X328430Y535192D01*
X328451Y535259D01*
X328477Y535326D01*
X328506Y535391D01*
X328538Y535454D01*
X328575Y535516D01*
X328614Y535575D01*
X328657Y535632D01*
X328703Y535686D01*
X328752Y535738D01*
X328804Y535787D01*
X328858Y535833D01*
X328915Y535876D01*
X328974Y535915D01*
X329036Y535952D01*
X329099Y535984D01*
X329164Y536013D01*
X329231Y536039D01*
X329298Y536060D01*
X329367Y536078D01*
X329437Y536092D01*
X329508Y536102D01*
X329579Y536108D01*
X329650Y536110D01*
X329721Y536108D01*
X329792Y536102D01*
X329863Y536092D01*
X329933Y536078D01*
X330002Y536060D01*
X330069Y536039D01*
X330136Y536013D01*
X330201Y535984D01*
X330264Y535952D01*
X330326Y535915D01*
X330385Y535876D01*
X330442Y535833D01*
X330496Y535787D01*
X330548Y535738D01*
X330597Y535686D01*
X330643Y535632D01*
X330686Y535575D01*
X330725Y535516D01*
X330762Y535454D01*
X330794Y535391D01*
X330823Y535326D01*
X330849Y535259D01*
X330870Y535192D01*
X330888Y535123D01*
X330902Y535053D01*
X330912Y534982D01*
X330918Y534911D01*
X330920Y534840D01*
X330918Y534769D01*
X330912Y534698D01*
X330902Y534627D01*
X330888Y534557D01*
X330870Y534488D01*
X330849Y534421D01*
X330823Y534354D01*
X330794Y534289D01*
X330762Y534226D01*
X330725Y534164D01*
X330686Y534105D01*
X330643Y534048D01*
X330597Y533994D01*
X330548Y533942D01*
X330496Y533893D01*
X330442Y533847D01*
X330385Y533804D01*
X330326Y533765D01*
X330264Y533728D01*
X330201Y533696D01*
X330136Y533667D01*
X330069Y533641D01*
X330002Y533620D01*
X329933Y533602D01*
X329863Y533588D01*
X329792Y533578D01*
X329721Y533572D01*
X329650Y533570D01*
X329579Y533572D01*
X329508Y533578D01*
X329437Y533588D01*
X329367Y533602D01*
X329298Y533620D01*
X329231Y533641D01*
X329164Y533667D01*
X329099Y533696D01*
X329036Y533728D01*
X328974Y533765D01*
X328915Y533804D01*
X328858Y533847D01*
X328804Y533893D01*
X328752Y533942D01*
X328703Y533994D01*
X328657Y534048D01*
X328614Y534105D01*
X328575Y534164D01*
X328538Y534226D01*
X328506Y534289D01*
X328477Y534354D01*
X328451Y534421D01*
X328430Y534488D01*
X328412Y534557D01*
X328398Y534627D01*
X328388Y534698D01*
X328382Y534769D01*
X328380Y534840D01*
D10*
X102600Y377200D03*
D11*
X118380Y392440D02*
X118382Y392511D01*
X118388Y392582D01*
X118398Y392653D01*
X118412Y392723D01*
X118430Y392792D01*
X118451Y392859D01*
X118477Y392926D01*
X118506Y392991D01*
X118538Y393054D01*
X118575Y393116D01*
X118614Y393175D01*
X118657Y393232D01*
X118703Y393286D01*
X118752Y393338D01*
X118804Y393387D01*
X118858Y393433D01*
X118915Y393476D01*
X118974Y393515D01*
X119036Y393552D01*
X119099Y393584D01*
X119164Y393613D01*
X119231Y393639D01*
X119298Y393660D01*
X119367Y393678D01*
X119437Y393692D01*
X119508Y393702D01*
X119579Y393708D01*
X119650Y393710D01*
X119721Y393708D01*
X119792Y393702D01*
X119863Y393692D01*
X119933Y393678D01*
X120002Y393660D01*
X120069Y393639D01*
X120136Y393613D01*
X120201Y393584D01*
X120264Y393552D01*
X120326Y393515D01*
X120385Y393476D01*
X120442Y393433D01*
X120496Y393387D01*
X120548Y393338D01*
X120597Y393286D01*
X120643Y393232D01*
X120686Y393175D01*
X120725Y393116D01*
X120762Y393054D01*
X120794Y392991D01*
X120823Y392926D01*
X120849Y392859D01*
X120870Y392792D01*
X120888Y392723D01*
X120902Y392653D01*
X120912Y392582D01*
X120918Y392511D01*
X120920Y392440D01*
X120918Y392369D01*
X120912Y392298D01*
X120902Y392227D01*
X120888Y392157D01*
X120870Y392088D01*
X120849Y392021D01*
X120823Y391954D01*
X120794Y391889D01*
X120762Y391826D01*
X120725Y391764D01*
X120686Y391705D01*
X120643Y391648D01*
X120597Y391594D01*
X120548Y391542D01*
X120496Y391493D01*
X120442Y391447D01*
X120385Y391404D01*
X120326Y391365D01*
X120264Y391328D01*
X120201Y391296D01*
X120136Y391267D01*
X120069Y391241D01*
X120002Y391220D01*
X119933Y391202D01*
X119863Y391188D01*
X119792Y391178D01*
X119721Y391172D01*
X119650Y391170D01*
X119579Y391172D01*
X119508Y391178D01*
X119437Y391188D01*
X119367Y391202D01*
X119298Y391220D01*
X119231Y391241D01*
X119164Y391267D01*
X119099Y391296D01*
X119036Y391328D01*
X118974Y391365D01*
X118915Y391404D01*
X118858Y391447D01*
X118804Y391493D01*
X118752Y391542D01*
X118703Y391594D01*
X118657Y391648D01*
X118614Y391705D01*
X118575Y391764D01*
X118538Y391826D01*
X118506Y391889D01*
X118477Y391954D01*
X118451Y392021D01*
X118430Y392088D01*
X118412Y392157D01*
X118398Y392227D01*
X118388Y392298D01*
X118382Y392369D01*
X118380Y392440D01*
D10*
X312600Y231300D03*
D11*
X328380Y246540D02*
X328382Y246611D01*
X328388Y246682D01*
X328398Y246753D01*
X328412Y246823D01*
X328430Y246892D01*
X328451Y246959D01*
X328477Y247026D01*
X328506Y247091D01*
X328538Y247154D01*
X328575Y247216D01*
X328614Y247275D01*
X328657Y247332D01*
X328703Y247386D01*
X328752Y247438D01*
X328804Y247487D01*
X328858Y247533D01*
X328915Y247576D01*
X328974Y247615D01*
X329036Y247652D01*
X329099Y247684D01*
X329164Y247713D01*
X329231Y247739D01*
X329298Y247760D01*
X329367Y247778D01*
X329437Y247792D01*
X329508Y247802D01*
X329579Y247808D01*
X329650Y247810D01*
X329721Y247808D01*
X329792Y247802D01*
X329863Y247792D01*
X329933Y247778D01*
X330002Y247760D01*
X330069Y247739D01*
X330136Y247713D01*
X330201Y247684D01*
X330264Y247652D01*
X330326Y247615D01*
X330385Y247576D01*
X330442Y247533D01*
X330496Y247487D01*
X330548Y247438D01*
X330597Y247386D01*
X330643Y247332D01*
X330686Y247275D01*
X330725Y247216D01*
X330762Y247154D01*
X330794Y247091D01*
X330823Y247026D01*
X330849Y246959D01*
X330870Y246892D01*
X330888Y246823D01*
X330902Y246753D01*
X330912Y246682D01*
X330918Y246611D01*
X330920Y246540D01*
X330918Y246469D01*
X330912Y246398D01*
X330902Y246327D01*
X330888Y246257D01*
X330870Y246188D01*
X330849Y246121D01*
X330823Y246054D01*
X330794Y245989D01*
X330762Y245926D01*
X330725Y245864D01*
X330686Y245805D01*
X330643Y245748D01*
X330597Y245694D01*
X330548Y245642D01*
X330496Y245593D01*
X330442Y245547D01*
X330385Y245504D01*
X330326Y245465D01*
X330264Y245428D01*
X330201Y245396D01*
X330136Y245367D01*
X330069Y245341D01*
X330002Y245320D01*
X329933Y245302D01*
X329863Y245288D01*
X329792Y245278D01*
X329721Y245272D01*
X329650Y245270D01*
X329579Y245272D01*
X329508Y245278D01*
X329437Y245288D01*
X329367Y245302D01*
X329298Y245320D01*
X329231Y245341D01*
X329164Y245367D01*
X329099Y245396D01*
X329036Y245428D01*
X328974Y245465D01*
X328915Y245504D01*
X328858Y245547D01*
X328804Y245593D01*
X328752Y245642D01*
X328703Y245694D01*
X328657Y245748D01*
X328614Y245805D01*
X328575Y245864D01*
X328538Y245926D01*
X328506Y245989D01*
X328477Y246054D01*
X328451Y246121D01*
X328430Y246188D01*
X328412Y246257D01*
X328398Y246327D01*
X328388Y246398D01*
X328382Y246469D01*
X328380Y246540D01*
X364040Y560080D02*
X364040Y600720D01*
X384360Y600720D01*
X384360Y560080D01*
X364040Y560080D01*
X364040Y549920D02*
X364040Y509280D01*
X364040Y549920D02*
X384360Y549920D01*
X384360Y509280D01*
X364040Y509280D01*
X364040Y499120D02*
X364040Y458480D01*
X364040Y499120D02*
X384360Y499120D01*
X384360Y458480D01*
X364040Y458480D01*
X364040Y448320D02*
X364040Y407680D01*
X364040Y448320D02*
X384360Y448320D01*
X384360Y407680D01*
X364040Y407680D01*
X364040Y397520D02*
X364040Y356880D01*
X364040Y397520D02*
X384360Y397520D01*
X384360Y356880D01*
X364040Y356880D01*
X364040Y346720D02*
X364040Y306080D01*
X364040Y346720D02*
X384360Y346720D01*
X384360Y306080D01*
X364040Y306080D01*
X364040Y295920D02*
X364040Y255280D01*
X364040Y295920D02*
X384360Y295920D01*
X384360Y255280D01*
X364040Y255280D01*
X364040Y245120D02*
X364040Y204480D01*
X364040Y245120D02*
X384360Y245120D01*
X384360Y204480D01*
X364040Y204480D01*
X364040Y194320D02*
X364040Y153680D01*
X364040Y194320D02*
X384360Y194320D01*
X384360Y153680D01*
X364040Y153680D01*
X498971Y306921D02*
X498971Y484921D01*
X498971Y306921D02*
X708971Y306921D01*
X708971Y478206D01*
X702256Y484921D01*
X498971Y484921D01*
X723211Y440921D02*
X723211Y350971D01*
X649691Y350971D01*
X649691Y440961D01*
X723221Y440961D01*
D12*
X680581Y493811D03*
D13*
X426286Y201200D02*
X426288Y201275D01*
X426294Y201349D01*
X426304Y201423D01*
X426317Y201496D01*
X426335Y201569D01*
X426356Y201640D01*
X426381Y201711D01*
X426410Y201780D01*
X426443Y201847D01*
X426479Y201912D01*
X426518Y201976D01*
X426560Y202037D01*
X426606Y202096D01*
X426655Y202153D01*
X426707Y202206D01*
X426761Y202257D01*
X426818Y202306D01*
X426878Y202350D01*
X426940Y202392D01*
X427004Y202431D01*
X427070Y202466D01*
X427137Y202497D01*
X427207Y202525D01*
X427277Y202549D01*
X427349Y202570D01*
X427422Y202586D01*
X427495Y202599D01*
X427570Y202608D01*
X427644Y202613D01*
X427719Y202614D01*
X427793Y202611D01*
X427868Y202604D01*
X427941Y202593D01*
X428015Y202579D01*
X428087Y202560D01*
X428158Y202538D01*
X428228Y202512D01*
X428297Y202482D01*
X428363Y202449D01*
X428428Y202412D01*
X428491Y202372D01*
X428552Y202328D01*
X428610Y202282D01*
X428666Y202232D01*
X428719Y202180D01*
X428770Y202125D01*
X428817Y202067D01*
X428861Y202007D01*
X428902Y201944D01*
X428940Y201880D01*
X428974Y201814D01*
X429005Y201745D01*
X429032Y201676D01*
X429055Y201605D01*
X429074Y201533D01*
X429090Y201460D01*
X429102Y201386D01*
X429110Y201312D01*
X429114Y201237D01*
X429114Y201163D01*
X429110Y201088D01*
X429102Y201014D01*
X429090Y200940D01*
X429074Y200867D01*
X429055Y200795D01*
X429032Y200724D01*
X429005Y200655D01*
X428974Y200586D01*
X428940Y200520D01*
X428902Y200456D01*
X428861Y200393D01*
X428817Y200333D01*
X428770Y200275D01*
X428719Y200220D01*
X428666Y200168D01*
X428610Y200118D01*
X428552Y200072D01*
X428491Y200028D01*
X428428Y199988D01*
X428363Y199951D01*
X428297Y199918D01*
X428228Y199888D01*
X428158Y199862D01*
X428087Y199840D01*
X428015Y199821D01*
X427941Y199807D01*
X427868Y199796D01*
X427793Y199789D01*
X427719Y199786D01*
X427644Y199787D01*
X427570Y199792D01*
X427495Y199801D01*
X427422Y199814D01*
X427349Y199830D01*
X427277Y199851D01*
X427207Y199875D01*
X427137Y199903D01*
X427070Y199934D01*
X427004Y199969D01*
X426940Y200008D01*
X426878Y200050D01*
X426818Y200094D01*
X426761Y200143D01*
X426707Y200194D01*
X426655Y200247D01*
X426606Y200304D01*
X426560Y200363D01*
X426518Y200424D01*
X426479Y200488D01*
X426443Y200553D01*
X426410Y200620D01*
X426381Y200689D01*
X426356Y200760D01*
X426335Y200831D01*
X426317Y200904D01*
X426304Y200977D01*
X426294Y201051D01*
X426288Y201125D01*
X426286Y201200D01*
M02*
