G04 EAGLE Gerber RS-274X export*
G75*
%MOMM*%
%FSLAX34Y34*%
%LPD*%
%INSoldermask Top*%
%IPPOS*%
%AMOC8*
5,1,8,0,0,1.08239X$1,22.5*%
G01*
G04 Define Apertures*
%ADD10R,0.800000X1.100000*%
%ADD11R,2.108200X1.473200*%
%ADD12C,1.159509*%
%ADD13R,1.103200X0.803200*%
D10*
X320100Y506600D03*
X305100Y506600D03*
X305100Y532600D03*
X320100Y532600D03*
X110100Y364200D03*
X95100Y364200D03*
X95100Y390200D03*
X110100Y390200D03*
X320100Y218300D03*
X305100Y218300D03*
X305100Y244300D03*
X320100Y244300D03*
D11*
X374200Y563890D03*
X374200Y596910D03*
X374200Y513090D03*
X374200Y546110D03*
X374200Y462290D03*
X374200Y495310D03*
X374200Y411490D03*
X374200Y444510D03*
X374200Y360690D03*
X374200Y393710D03*
X374200Y309890D03*
X374200Y342910D03*
X374200Y259090D03*
X374200Y292110D03*
X374200Y208290D03*
X374200Y241310D03*
X374200Y157490D03*
X374200Y190510D03*
D12*
X523027Y466747D02*
X523027Y486395D01*
X532515Y486395D01*
X532515Y466747D01*
X523027Y466747D01*
X523027Y477762D02*
X532515Y477762D01*
X548427Y486395D02*
X548427Y466747D01*
X548427Y486395D02*
X557915Y486395D01*
X557915Y466747D01*
X548427Y466747D01*
X548427Y477762D02*
X557915Y477762D01*
X573827Y486395D02*
X573827Y466747D01*
X573827Y486395D02*
X583315Y486395D01*
X583315Y466747D01*
X573827Y466747D01*
X573827Y477762D02*
X583315Y477762D01*
X599227Y486395D02*
X599227Y466747D01*
X599227Y486395D02*
X608715Y486395D01*
X608715Y466747D01*
X599227Y466747D01*
X599227Y477762D02*
X608715Y477762D01*
X624627Y486395D02*
X624627Y466747D01*
X624627Y486395D02*
X634115Y486395D01*
X634115Y466747D01*
X624627Y466747D01*
X624627Y477762D02*
X634115Y477762D01*
X650027Y486395D02*
X650027Y466747D01*
X650027Y486395D02*
X659515Y486395D01*
X659515Y466747D01*
X650027Y466747D01*
X650027Y477762D02*
X659515Y477762D01*
X675427Y486395D02*
X675427Y466747D01*
X675427Y486395D02*
X684915Y486395D01*
X684915Y466747D01*
X675427Y466747D01*
X675427Y477762D02*
X684915Y477762D01*
X523027Y324745D02*
X523027Y305097D01*
X523027Y324745D02*
X532515Y324745D01*
X532515Y305097D01*
X523027Y305097D01*
X523027Y316112D02*
X532515Y316112D01*
X548427Y324745D02*
X548427Y305097D01*
X548427Y324745D02*
X557915Y324745D01*
X557915Y305097D01*
X548427Y305097D01*
X548427Y316112D02*
X557915Y316112D01*
X573827Y324745D02*
X573827Y305097D01*
X573827Y324745D02*
X583315Y324745D01*
X583315Y305097D01*
X573827Y305097D01*
X573827Y316112D02*
X583315Y316112D01*
X599227Y324745D02*
X599227Y305097D01*
X599227Y324745D02*
X608715Y324745D01*
X608715Y305097D01*
X599227Y305097D01*
X599227Y316112D02*
X608715Y316112D01*
X624627Y324745D02*
X624627Y305097D01*
X624627Y324745D02*
X634115Y324745D01*
X634115Y305097D01*
X624627Y305097D01*
X624627Y316112D02*
X634115Y316112D01*
X650027Y324745D02*
X650027Y305097D01*
X650027Y324745D02*
X659515Y324745D01*
X659515Y305097D01*
X650027Y305097D01*
X650027Y316112D02*
X659515Y316112D01*
X675427Y324745D02*
X675427Y305097D01*
X675427Y324745D02*
X684915Y324745D01*
X684915Y305097D01*
X675427Y305097D01*
X675427Y316112D02*
X684915Y316112D01*
D13*
X427700Y193700D03*
X427700Y174700D03*
X455700Y184200D03*
M02*
