G04 EAGLE Gerber RS-274X export*
G75*
%MOMM*%
%FSLAX34Y34*%
%LPD*%
%INSolderpaste Top*%
%IPPOS*%
%AMOC8*
5,1,8,0,0,1.08239X$1,22.5*%
G01*
G04 Define Apertures*
%ADD10R,0.700000X1.000000*%
%ADD11R,1.905000X1.270000*%
%ADD12C,0.952500*%
%ADD13R,0.900000X0.600000*%
D10*
X320100Y532600D03*
X305100Y532600D03*
X305100Y506600D03*
X320100Y506600D03*
X110100Y390200D03*
X95100Y390200D03*
X95100Y364200D03*
X110100Y364200D03*
X320100Y244300D03*
X305100Y244300D03*
X305100Y218300D03*
X320100Y218300D03*
D11*
X374200Y563890D03*
X374200Y596910D03*
X374200Y513090D03*
X374200Y546110D03*
X374200Y462290D03*
X374200Y495310D03*
X374200Y411490D03*
X374200Y444510D03*
X374200Y360690D03*
X374200Y393710D03*
X374200Y309890D03*
X374200Y342910D03*
X374200Y259090D03*
X374200Y292110D03*
X374200Y208290D03*
X374200Y241310D03*
X374200Y157490D03*
X374200Y190510D03*
D12*
X523008Y466728D02*
X523008Y486414D01*
X532534Y486414D01*
X532534Y466728D01*
X523008Y466728D01*
X523008Y475777D02*
X532534Y475777D01*
X532534Y484826D02*
X523008Y484826D01*
X548408Y486414D02*
X548408Y466728D01*
X548408Y486414D02*
X557934Y486414D01*
X557934Y466728D01*
X548408Y466728D01*
X548408Y475777D02*
X557934Y475777D01*
X557934Y484826D02*
X548408Y484826D01*
X573808Y486414D02*
X573808Y466728D01*
X573808Y486414D02*
X583334Y486414D01*
X583334Y466728D01*
X573808Y466728D01*
X573808Y475777D02*
X583334Y475777D01*
X583334Y484826D02*
X573808Y484826D01*
X599208Y486414D02*
X599208Y466728D01*
X599208Y486414D02*
X608734Y486414D01*
X608734Y466728D01*
X599208Y466728D01*
X599208Y475777D02*
X608734Y475777D01*
X608734Y484826D02*
X599208Y484826D01*
X624608Y486414D02*
X624608Y466728D01*
X624608Y486414D02*
X634134Y486414D01*
X634134Y466728D01*
X624608Y466728D01*
X624608Y475777D02*
X634134Y475777D01*
X634134Y484826D02*
X624608Y484826D01*
X650008Y486414D02*
X650008Y466728D01*
X650008Y486414D02*
X659534Y486414D01*
X659534Y466728D01*
X650008Y466728D01*
X650008Y475777D02*
X659534Y475777D01*
X659534Y484826D02*
X650008Y484826D01*
X675408Y486414D02*
X675408Y466728D01*
X675408Y486414D02*
X684934Y486414D01*
X684934Y466728D01*
X675408Y466728D01*
X675408Y475777D02*
X684934Y475777D01*
X684934Y484826D02*
X675408Y484826D01*
X523008Y324764D02*
X523008Y305078D01*
X523008Y324764D02*
X532534Y324764D01*
X532534Y305078D01*
X523008Y305078D01*
X523008Y314127D02*
X532534Y314127D01*
X532534Y323176D02*
X523008Y323176D01*
X548408Y324764D02*
X548408Y305078D01*
X548408Y324764D02*
X557934Y324764D01*
X557934Y305078D01*
X548408Y305078D01*
X548408Y314127D02*
X557934Y314127D01*
X557934Y323176D02*
X548408Y323176D01*
X573808Y324764D02*
X573808Y305078D01*
X573808Y324764D02*
X583334Y324764D01*
X583334Y305078D01*
X573808Y305078D01*
X573808Y314127D02*
X583334Y314127D01*
X583334Y323176D02*
X573808Y323176D01*
X599208Y324764D02*
X599208Y305078D01*
X599208Y324764D02*
X608734Y324764D01*
X608734Y305078D01*
X599208Y305078D01*
X599208Y314127D02*
X608734Y314127D01*
X608734Y323176D02*
X599208Y323176D01*
X624608Y324764D02*
X624608Y305078D01*
X624608Y324764D02*
X634134Y324764D01*
X634134Y305078D01*
X624608Y305078D01*
X624608Y314127D02*
X634134Y314127D01*
X634134Y323176D02*
X624608Y323176D01*
X650008Y324764D02*
X650008Y305078D01*
X650008Y324764D02*
X659534Y324764D01*
X659534Y305078D01*
X650008Y305078D01*
X650008Y314127D02*
X659534Y314127D01*
X659534Y323176D02*
X650008Y323176D01*
X675408Y324764D02*
X675408Y305078D01*
X675408Y324764D02*
X684934Y324764D01*
X684934Y305078D01*
X675408Y305078D01*
X675408Y314127D02*
X684934Y314127D01*
X684934Y323176D02*
X675408Y323176D01*
D13*
X427700Y193700D03*
X427700Y174700D03*
X455700Y184200D03*
M02*
